<svg id="Layer_1" data-name="Layer 1" xmlns="http://www.w3.org/2000/svg" viewBox="0 0 304 66"><defs><style>.cls-1{fill:#ed9931;}.cls-2{fill:#4c8993;}.cls-3{fill:#00a399;}.cls-4{fill:#fff;}.cls-5{fill:#02a99c;}.cls-6{fill:#4c8891;}.cls-7{fill:#ee9930;}</style></defs><path class="cls-1" d="M117.85,44.45l17.93-9.28v2.68l-15.11,7.61v.08l15.11,7.62v2.68l-17.93-9.29Z"/><path class="cls-1" d="M153,57.39l10.78-28.16h2.62L155.59,57.39Z"/><path class="cls-1" d="M185,46.59,167,55.84V53.16l15.22-7.62v-.08L167,37.85V35.17L185,44.41Z"/><path class="cls-2" d="M119,43.66,137,34.37v2.68l-15.11,7.62v.08L137,52.36V55L119,45.75Z"/><path class="cls-2" d="M154.19,56.59,165,28.43h2.63L156.78,56.59Z"/><path class="cls-2" d="M186.15,45.79,168.22,55V52.36l15.22-7.62v-.08l-15.22-7.61V34.37l17.93,9.25Z"/><path class="cls-1" d="M170.43,14.14a.46.46,0,0,1-.2-.5,5.78,5.78,0,0,0,0-1.81c-.08-.43-.13-.86-.25-1.27a7.64,7.64,0,0,0-.72-1.72,8.47,8.47,0,0,0-1.56-2,7.14,7.14,0,0,0-2.25-1.44A11.81,11.81,0,0,0,164.06,5c-.53-.11-1.08-.15-1.49-.21a11,11,0,0,0-2.18.26A7.93,7.93,0,0,0,158,6.08a7.42,7.42,0,0,0-2,1.89.39.39,0,0,1-.36.18,1.8,1.8,0,0,0-1.75.82,1.87,1.87,0,0,0-.21,1.73,2.08,2.08,0,0,0,.66.89.39.39,0,0,1,.09.24,8.65,8.65,0,0,0,.09,2.59,8.13,8.13,0,0,0,2,3.89A8,8,0,0,0,158.72,20a8.1,8.1,0,0,0,1.6.6,7.57,7.57,0,0,0,3.14.16,9.3,9.3,0,0,0,1.38-.35,7.07,7.07,0,0,0,2.07-1,7.71,7.71,0,0,0,1.74-1.68.41.41,0,0,1,.43-.21A1.83,1.83,0,0,0,171,16.35,1.89,1.89,0,0,0,170.43,14.14Zm-.49,1.77a.82.82,0,0,1-1.08.4l-.27-.14c-.15-.09-.23,0-.32.09a11.64,11.64,0,0,1-.76,1.08A6.76,6.76,0,0,1,166,18.63a6.68,6.68,0,0,1-1.47.72,7.49,7.49,0,0,1-1.49.34,6.61,6.61,0,0,1-3.12-.36,6.84,6.84,0,0,1-1.87-1,7,7,0,0,1-1.74-2,6.72,6.72,0,0,1-.77-1.93,7.34,7.34,0,0,1-.17-1.67,6.45,6.45,0,0,1,.21-1.63.19.19,0,0,0-.08-.14,3.39,3.39,0,0,0-.41-.15.81.81,0,0,1-.47-1.09.79.79,0,0,1,1.09-.37l.45.21c.17-.25.31-.49.46-.72A7,7,0,0,1,161.4,6a6.28,6.28,0,0,1,2.12,0,6.59,6.59,0,0,1,1.83.62,6.88,6.88,0,0,1,2.54,2.16,6.68,6.68,0,0,1,1,1.92,6.45,6.45,0,0,1,.32,1.63,7.09,7.09,0,0,1-.18,2.15c-.05.2,0,.25.2.3a1.7,1.7,0,0,1,.32.1A.81.81,0,0,1,169.94,15.91Z"/><path class="cls-1" d="M169.52,14.86a2,2,0,0,0-.32-.1c-.21,0-.25-.11-.2-.3a7.42,7.42,0,0,0,.17-2.15,6.44,6.44,0,0,0-.31-1.63,7.23,7.23,0,0,0-1-1.92,6.83,6.83,0,0,0-2.55-2.16A6.53,6.53,0,0,0,163.52,6a6.29,6.29,0,0,0-2.12,0,6.77,6.77,0,0,0-1.81.5,7,7,0,0,0-2.94,2.37l-.46.72-.45-.21a.78.78,0,0,0-1.09.37.81.81,0,0,0,.46,1.09,3.52,3.52,0,0,1,.42.15.17.17,0,0,1,.07.14,6.86,6.86,0,0,0-.2,1.63,7.22,7.22,0,0,0,.16,1.67,7.35,7.35,0,0,0,.77,1.93,6.94,6.94,0,0,0,1.75,2,6.7,6.7,0,0,0,1.87,1,6.58,6.58,0,0,0,3.11.36,7.43,7.43,0,0,0,1.5-.34,6.46,6.46,0,0,0,1.47-.72,6.71,6.71,0,0,0,1.47-1.29,11.74,11.74,0,0,0,.77-1.08c.09-.13.17-.18.31-.09l.28.14a.8.8,0,1,0,.66-1.45Zm-9-3.55a.78.78,0,0,1,.79.81.76.76,0,0,1-.84.77.79.79,0,0,1,.05-1.58Zm3.21,5.56a4.67,4.67,0,0,1-1.41.29,4.49,4.49,0,0,1-2-.48,4,4,0,0,1-1.83-1.84c-.12-.23-.11-.23.1-.35s.34-.18.54.17a3.5,3.5,0,0,0,3.24,1.82,2.88,2.88,0,0,0,1.05-.2c.14-.06.25-.06.3.13a.77.77,0,0,0,.1.25A.14.14,0,0,1,163.74,16.87Zm.73-2.4a.77.77,0,0,1-.8-.74.8.8,0,0,1,.8-.86.79.79,0,0,1,.77.75A.77.77,0,0,1,164.47,14.47Z"/><path class="cls-1" d="M163.74,16.87a4.67,4.67,0,0,1-1.41.29,4.49,4.49,0,0,1-2-.48,4,4,0,0,1-1.83-1.84c-.12-.23-.11-.23.1-.35s.34-.18.54.17a3.5,3.5,0,0,0,3.24,1.82,2.88,2.88,0,0,0,1.05-.2c.14-.06.25-.06.3.13a.77.77,0,0,0,.1.25A.14.14,0,0,1,163.74,16.87Z"/><path class="cls-1" d="M165.24,13.62a.78.78,0,0,1-.77.86.81.81,0,1,1,.77-.86Z"/><path class="cls-1" d="M161.32,12.12a.8.8,0,0,1-1.59,0,.8.8,0,1,1,1.59,0Z"/><path class="cls-2" d="M169.44,13.65a.48.48,0,0,1-.19-.51,5.5,5.5,0,0,0,0-1.81,10.56,10.56,0,0,0-.25-1.27,6.82,6.82,0,0,0-.72-1.72,8.42,8.42,0,0,0-1.56-2,6.93,6.93,0,0,0-2.25-1.44,11.16,11.16,0,0,0-1.38-.46c-.53-.12-1.07-.16-1.48-.22a11.63,11.63,0,0,0-2.18.26A8,8,0,0,0,157,5.58a7.42,7.42,0,0,0-2,1.89.37.37,0,0,1-.36.18,1.83,1.83,0,0,0-1.75.82,1.87,1.87,0,0,0-.2,1.73,2.18,2.18,0,0,0,.65.9.28.28,0,0,1,.09.23,8.64,8.64,0,0,0,.1,2.59,8.08,8.08,0,0,0,4.26,5.58,8.59,8.59,0,0,0,1.6.6,7.62,7.62,0,0,0,3.15.16,9.49,9.49,0,0,0,1.37-.35,6.77,6.77,0,0,0,2.08-1,7.88,7.88,0,0,0,1.73-1.68.42.42,0,0,1,.43-.21A1.85,1.85,0,0,0,170,15.86,1.9,1.9,0,0,0,169.44,13.65ZM169,15.41a.82.82,0,0,1-1.09.4c-.09-.05-.18-.08-.27-.14s-.22,0-.31.1c-.25.36-.49.73-.77,1.07a6.71,6.71,0,0,1-1.47,1.29,6.91,6.91,0,0,1-1.47.72,6.52,6.52,0,0,1-1.5.34,6.58,6.58,0,0,1-3.11-.36,6.7,6.7,0,0,1-1.87-1,7,7,0,0,1-2.52-3.92,6.71,6.71,0,0,1-.16-1.67,6.78,6.78,0,0,1,.2-1.62.17.17,0,0,0-.08-.15c-.13-.06-.27-.1-.41-.15a.81.81,0,0,1-.46-1.09.79.79,0,0,1,1.09-.36c.13.07.28.13.45.2.16-.25.3-.49.46-.71A6.9,6.9,0,0,1,158.61,6a7.09,7.09,0,0,1,1.8-.5,6.09,6.09,0,0,1,2.13,0,6.3,6.3,0,0,1,1.82.61,6.84,6.84,0,0,1,3.51,4.08,5.68,5.68,0,0,1,.32,1.63A7.09,7.09,0,0,1,168,14c0,.2,0,.25.21.3l.32.1A.82.82,0,0,1,169,15.41Z"/><path class="cls-3" d="M168.53,14.36l-.32-.1c-.2,0-.25-.1-.2-.3a7.09,7.09,0,0,0,.18-2.15,6.45,6.45,0,0,0-.32-1.63,6.68,6.68,0,0,0-1-1.92,7,7,0,0,0-2.54-2.16,6.26,6.26,0,0,0-1.83-.61,6,6,0,0,0-2.12,0,7,7,0,0,0-1.8.5,6.9,6.9,0,0,0-2.94,2.38c-.16.22-.3.46-.47.71l-.45-.2a.79.79,0,0,0-1.09.36.81.81,0,0,0,.47,1.09c.13.05.28.09.41.15a.19.19,0,0,1,.08.15,6.32,6.32,0,0,0-.21,1.62,7.23,7.23,0,0,0,.17,1.67,7,7,0,0,0,2.51,3.92,6.59,6.59,0,0,0,1.87,1,6.5,6.5,0,0,0,3.12.36,6.86,6.86,0,0,0,1.49-.34,6.27,6.27,0,0,0,1.47-.72,6.76,6.76,0,0,0,1.48-1.29c.28-.34.52-.71.77-1.07.08-.13.16-.19.31-.1s.18.09.27.14a.8.8,0,1,0,.66-1.45Zm-9-3.54a.78.78,0,0,1,.8.8.77.77,0,0,1-.84.77.79.79,0,0,1,0-1.57Zm3.22,5.56a4,4,0,0,1-3.41-.19,4.12,4.12,0,0,1-1.83-1.84c-.11-.23-.11-.23.11-.35s.33-.18.53.16A3.5,3.5,0,0,0,161.4,16a3.17,3.17,0,0,0,1.06-.21c.13,0,.25,0,.29.13a.85.85,0,0,0,.11.26A.14.14,0,0,1,162.76,16.38Zm.72-2.4a.8.8,0,1,1,.78-.86A.78.78,0,0,1,163.48,14Z"/><path class="cls-4" d="M162.76,16.38a4,4,0,0,1-3.41-.19,4.12,4.12,0,0,1-1.83-1.84c-.11-.23-.11-.23.11-.35s.33-.18.53.16A3.5,3.5,0,0,0,161.4,16a3.17,3.17,0,0,0,1.06-.21c.13,0,.25,0,.29.13a.85.85,0,0,0,.11.26A.14.14,0,0,1,162.76,16.38Z"/><path class="cls-4" d="M164.25,13.12a.77.77,0,0,1-.77.86.8.8,0,1,1,0-1.6A.77.77,0,0,1,164.25,13.12Z"/><path class="cls-4" d="M160.33,11.62a.79.79,0,0,1-1.58,0,.79.79,0,1,1,1.58,0Z"/><path class="cls-5" d="M159.68,23l.38.1-3.29,9.77q-2.58,7.62-5.18,15.23c-1,3.06-2.11,6.1-3.07,9.18-.56,1.8-1.49,3.11-3.38,3.54a9.69,9.69,0,0,1-2.22.07,3.92,3.92,0,0,1-3.77-5.3q1.42-4.22,2.84-8.42c.76-2.28,1.51-4.57,2.27-6.85,1.06-3.15,2.16-6.27,3.15-9.44a4.68,4.68,0,0,0-1.93-5.14,5.36,5.36,0,0,0-3.13-.84h-7.2a3.63,3.63,0,0,1-1.91-.51c-2.14-1.29-2.26-3.88-1.52-6,.6-1.76,2.13-2.38,3.9-2.39,2,0,3.95,0,5.92,0l9.94,0a10.46,10.46,0,0,0,5.15,5.78c.15.08.31.14.46.21l.52.29A11.61,11.61,0,0,0,159.68,23Z"/><path class="cls-5" d="M161.83,17.13l-.26,0-.21,0a5,5,0,0,1-1-.36l-.25-.14-.2-.13h0l.38.11.25.06.31.05.18,0,.36,0,.29,0A1.61,1.61,0,0,1,161.83,17.13Z"/><path class="cls-6" d="M160,15.65a1.34,1.34,0,0,1-.21-.2l-.17-.19-.21-.26h-.56a3.38,3.38,0,0,0,1,.69l.18.07.19.06A1.84,1.84,0,0,1,160,15.65Zm.22.17h0l.09,0Zm.81,7.42c-.31,0-.63-.09-.93-.16l-3.29,9.77q-2.58,7.62-5.18,15.23c-1,3.06-2.11,6.1-3.07,9.18-.56,1.8-1.49,3.11-3.38,3.54a9.69,9.69,0,0,1-2.22.07,3.92,3.92,0,0,1-3.77-5.3q1.42-4.22,2.84-8.42c.76-2.28,1.51-4.57,2.27-6.85,1.06-3.15,2.16-6.27,3.15-9.44a4.68,4.68,0,0,0-1.93-5.14,5.34,5.34,0,0,0-3.12-.84h-7.21a3.63,3.63,0,0,1-1.91-.51c-2.14-1.29-2.26-3.88-1.52-6,.6-1.76,2.13-2.38,3.9-2.39,2,0,3.95,0,5.92,0l9.94,0a9.15,9.15,0,0,1-.29-.93H135.38a4.83,4.83,0,0,0-4.64,3.14,7.14,7.14,0,0,0-.3,2.6,4.83,4.83,0,0,0,4.36,5.09c2.71,0,5.42-.07,8.13,0a3.87,3.87,0,0,1,3.5,5.21c-1.27,3.74-2.52,7.49-3.78,11.24q-2,5.88-4,11.75a1.73,1.73,0,0,1-.41.9c-.07.37-.13.74-.2,1.11a4.79,4.79,0,0,0,3,5.41,9.86,9.86,0,0,0,3.46.26A4.57,4.57,0,0,0,149,58.52q4.38-12.92,8.74-25.83c.63-1.85,1.18-3.72,1.92-5.52l0,0C159.78,26.87,160.33,25.23,161,23.24Z"/><path class="cls-7" d="M134.81,25.84c2.71,0,5.42-.06,8.13,0a3.88,3.88,0,0,1,3.5,5.22c-1.27,3.74-2.52,7.49-3.78,11.23q-2,5.88-4,11.75a1.73,1.73,0,0,1-.41.9,10.64,10.64,0,0,1,.82-3.79c1.82-5.43,3.7-10.84,5.52-16.27a28,28,0,0,0,1.37-5.2,2.47,2.47,0,0,0-1.09-2.49,4.43,4.43,0,0,0-2.42-.7c-1.54,0-3.09.05-4.64,0A5.51,5.51,0,0,1,134.81,25.84Z"/></svg>