<svg width="304" height="66" viewBox="0 0 304 66" fill="none" xmlns="http://www.w3.org/2000/svg">
<g clip-path="url(#clip0)">
<path d="M102.021 44.2264C100.947 43.7046 100.102 42.9848 99.4889 42.0626C98.876 41.1448 98.5674 40.0967 98.5674 38.918C98.5674 38.4636 98.715 38.0992 99.0058 37.8203C99.2966 37.5459 99.641 37.4064 100.039 37.4064C100.339 37.4064 100.616 37.5009 100.858 37.6899C101.104 37.8788 101.256 38.1622 101.31 38.5446C101.574 40.9919 103.139 42.2155 106.007 42.2155C107.384 42.2155 108.467 41.9141 109.259 41.3068C110.051 40.6995 110.449 39.9212 110.449 38.972C110.449 38.4051 110.176 37.9238 109.63 37.5369C109.084 37.15 108.337 36.8036 107.393 36.4977L106.517 36.1828C104.651 35.5575 103.309 35.0446 102.5 34.6443C101.327 34.0549 100.455 33.3621 99.8826 32.5659C99.3055 31.7696 99.0192 30.8294 99.0192 29.7497C99.0192 28.8005 99.3189 27.8918 99.9228 27.019C100.527 26.1463 101.372 25.44 102.455 24.9001C103.537 24.3603 104.75 24.0904 106.092 24.0904C107.487 24.0904 108.731 24.3468 109.827 24.8597C110.923 25.3725 111.768 26.0563 112.372 26.9065C112.976 27.7613 113.276 28.67 113.276 29.6372C113.276 30.1321 113.137 30.5145 112.864 30.7889C112.592 31.0633 112.256 31.2028 111.858 31.2028C111.482 31.2028 111.16 31.0633 110.896 30.7889C110.632 30.5145 110.498 30.1501 110.498 29.6957C110.498 29.2234 110.297 28.76 109.89 28.3146C109.483 27.8693 108.937 27.5094 108.248 27.2349C107.559 26.9605 106.807 26.8211 105.998 26.8211C104.602 26.8211 103.564 27.064 102.884 27.5454C102.204 28.0312 101.846 28.697 101.811 29.5518C101.793 30.0061 101.931 30.4065 102.236 30.7484C102.535 31.0903 103.009 31.4412 103.649 31.8011C104.253 32.125 104.893 32.4219 105.573 32.6963C106.253 32.9708 107.156 33.2992 108.288 33.677C109.796 34.1899 110.999 34.8557 111.894 35.6835C112.788 36.5067 113.236 37.5774 113.236 38.8865C113.236 40.1011 112.878 41.1718 112.162 42.1031C111.446 43.0343 110.507 43.7496 109.348 44.2534C108.19 44.7573 106.946 45.0092 105.626 45.0092C104.307 45.0092 103.099 44.7483 102.021 44.2264Z" fill="#4C8993"/>
<path d="M118.859 44.015C117.821 43.5426 117.029 42.9443 116.483 42.22C115.938 41.5002 115.539 40.8344 115.293 40.2271C115.047 39.6198 114.895 39.017 114.842 38.4186C114.788 37.8203 114.815 37.0465 114.927 36.0973C115.056 35.3011 115.338 34.5138 115.763 33.7355C116.188 32.9573 116.752 32.26 117.459 31.6436C118.165 31.0273 119.02 30.555 120.017 30.2221C121.015 29.8892 122.084 29.7902 123.216 29.9251C124.312 30.0601 125.242 30.357 126.016 30.8204C126.79 31.2838 127.448 31.8776 127.998 32.5974C128.468 33.2047 128.758 33.659 128.861 33.965C128.964 34.2709 129.058 34.5543 129.143 34.8197C129.228 35.0851 129.3 35.3146 129.353 35.5035C129.412 35.6924 129.461 35.8859 129.51 36.0883C129.555 36.2863 129.59 36.5202 129.608 36.7856C129.626 37.1455 129.559 37.4784 129.412 37.7798C129.259 38.0812 129.036 38.3197 128.732 38.4906C128.486 38.5851 128.222 38.6346 127.94 38.6346L123.1 38.7201C119.704 38.7381 118.009 38.7785 118.009 38.8325H117.924C118.17 39.7997 118.684 40.56 119.467 41.1088C120.25 41.6577 121.319 41.9816 122.679 42.0761C123.413 42.1121 124.026 42.0761 124.518 41.9636C125.063 41.8106 125.462 41.6757 125.708 41.5497C125.954 41.4283 126.253 41.2618 126.611 41.0504C126.969 40.9199 127.327 40.9379 127.685 41.1088C128.043 41.2798 128.289 41.5452 128.418 41.9051C128.548 42.265 128.535 42.6159 128.374 42.9578C128.213 43.2997 127.962 43.5651 127.622 43.7541C127.318 43.925 127.009 44.0735 126.687 44.1949C126.365 44.3164 125.895 44.4649 125.274 44.6358C124.652 44.8068 123.726 44.8832 122.5 44.8652C121.113 44.7708 119.897 44.4874 118.859 44.015ZM126.499 35.8769C126.329 35.3101 126.056 34.7657 125.681 34.2529C124.925 33.3801 123.994 32.8763 122.88 32.7458C121.708 32.5929 120.684 32.8448 119.798 33.5016C118.912 34.1539 118.309 35.0042 117.986 36.0478C119.073 35.9894 121.914 35.9309 126.499 35.8769Z" fill="#4C8993"/>
<path d="M134.932 44.4379C134.838 44.3614 134.753 44.2759 134.677 44.1814C134.601 44.105 134.534 44.0195 134.48 43.925L134.252 43.5291C134.14 43.2997 133.997 42.9893 133.827 42.5889L133.263 41.3068C132.959 40.569 132.306 38.873 131.295 36.2278C130.284 33.5826 129.685 32.0215 129.497 31.5447C129.367 31.1848 129.38 30.8249 129.537 30.465C129.693 30.1051 129.957 29.8532 130.315 29.7092C130.673 29.5653 131.031 29.5788 131.389 29.7362C131.747 29.8982 132.002 30.1591 132.154 30.519C132.306 30.9374 132.892 32.4939 133.921 35.1841C134.95 37.8788 135.594 39.5568 135.858 40.2226L135.97 40.479C136.046 40.3486 136.113 40.2091 136.166 40.0652C136.22 39.9212 136.269 39.8087 136.31 39.7233C136.345 39.6378 136.377 39.5568 136.395 39.4803L136.453 39.3679C136.583 39.0665 137.088 37.7753 137.965 35.499C138.842 33.2227 139.593 31.5132 140.215 30.375C140.403 30.0331 140.685 29.8082 141.065 29.6912C141.445 29.5743 141.799 29.6147 142.138 29.8037C142.478 29.9926 142.702 30.2761 142.818 30.6584C142.93 31.0363 142.895 31.3962 142.707 31.7381C142.103 32.8403 141.409 34.4148 140.626 36.4617C139.844 38.5086 139.32 39.8582 139.056 40.5015L138.265 42.238C138.001 42.7689 137.755 43.2052 137.531 43.5471C137.361 43.7946 137.191 43.9925 137.021 44.1455C136.681 44.4874 136.305 44.6763 135.889 44.7123C135.536 44.7438 135.214 44.6493 134.932 44.4379Z" fill="#4C8993"/>
<path d="M147.068 44.015C146.03 43.5426 145.239 42.9443 144.693 42.22C144.147 41.5002 143.749 40.8344 143.503 40.2271C143.257 39.6198 143.105 39.017 143.051 38.4186C142.993 37.8203 143.024 37.0465 143.136 36.0973C143.266 35.3011 143.548 34.5138 143.973 33.7355C144.398 32.9573 144.961 32.26 145.668 31.6436C146.375 31.0273 147.229 30.555 148.227 30.2221C149.224 29.8892 150.294 29.7902 151.425 29.9251C152.521 30.0601 153.452 30.357 154.226 30.8204C155 31.2838 155.657 31.8776 156.207 32.5974C156.677 33.2047 156.968 33.659 157.071 33.965C157.174 34.2709 157.268 34.5543 157.353 34.8197C157.438 35.0851 157.509 35.3146 157.563 35.5035C157.621 35.6924 157.67 35.8859 157.719 36.0883C157.769 36.2908 157.8 36.5202 157.818 36.7856C157.836 37.1455 157.769 37.4784 157.621 37.7798C157.469 38.0812 157.245 38.3197 156.941 38.4906C156.695 38.5851 156.431 38.6346 156.149 38.6346L151.309 38.7201C147.914 38.7381 146.214 38.7785 146.214 38.8325H146.129C146.375 39.7997 146.889 40.56 147.672 41.1088C148.455 41.6577 149.524 41.9816 150.884 42.0761C151.618 42.1121 152.231 42.0761 152.723 41.9636C153.268 41.8106 153.667 41.6757 153.913 41.5497C154.159 41.4283 154.458 41.2618 154.816 41.0504C155.174 40.9199 155.532 40.9379 155.89 41.1088C156.248 41.2798 156.494 41.5452 156.623 41.9051C156.753 42.265 156.74 42.6159 156.583 42.9578C156.422 43.2997 156.172 43.5651 155.832 43.7541C155.527 43.925 155.219 44.0735 154.897 44.1949C154.575 44.3164 154.105 44.4649 153.483 44.6358C152.861 44.8068 151.935 44.8832 150.71 44.8652C149.323 44.7708 148.106 44.4874 147.068 44.015ZM154.709 35.8769C154.539 35.3101 154.266 34.7657 153.89 34.2529C153.134 33.3801 152.204 32.8763 151.09 32.7458C149.918 32.5929 148.893 32.8448 148.008 33.5016C147.122 34.1539 146.518 35.0042 146.196 36.0478C147.287 35.9894 150.124 35.9309 154.709 35.8769Z" fill="#4C8993"/>
<path d="M160.171 44.3389C159.889 44.0825 159.746 43.7361 159.746 43.2997C159.746 41.8016 159.737 40.5105 159.719 39.4308C159.683 36.2053 159.661 33.4071 159.661 31.0363C159.661 30.5999 159.791 30.258 160.059 30.0106C160.323 29.7632 160.645 29.6417 161.021 29.6417C161.414 29.6417 161.759 29.7722 162.054 30.0241C162.345 30.2805 162.493 30.6359 162.493 31.0903V31.972C163.66 30.4335 165.199 29.6687 167.105 29.6687C168.746 29.6687 170.003 30.2491 170.88 31.4052C171.757 32.5614 172.195 34.1179 172.195 36.0703C172.195 38.2342 172.169 39.6558 172.11 40.3396L171.967 42.247L171.882 43.4706C171.846 43.8485 171.694 44.1544 171.43 44.3794C171.167 44.6088 170.853 44.7213 170.495 44.7213C170.12 44.7213 169.789 44.5953 169.507 44.3389C169.225 44.0825 169.082 43.7361 169.082 43.2997C169.082 42.9983 169.149 41.9456 169.279 40.1416C169.373 38.909 169.422 37.9418 169.422 37.24C169.422 35.6295 169.194 34.4373 168.742 33.668C168.29 32.8988 167.592 32.5164 166.648 32.5164C165.968 32.5164 165.266 32.7233 164.541 33.1417C163.817 33.5601 163.132 34.0909 162.488 34.7342L162.546 38.774L162.573 43.2997C162.573 43.7361 162.43 44.0825 162.148 44.3389C161.866 44.5953 161.535 44.7213 161.159 44.7213C160.784 44.7258 160.453 44.5953 160.171 44.3389Z" fill="#4C8993"/>
<path d="M188.268 35.0221L185.325 37.4694C185.343 39.6873 185.392 41.6127 185.468 43.2457C185.486 43.6461 185.37 43.9925 185.115 44.2849C184.86 44.5773 184.533 44.7348 184.139 44.7528C183.741 44.7708 183.397 44.6538 183.106 44.3974C182.815 44.1409 182.659 43.8125 182.641 43.4167C182.583 42.2785 182.547 41.1583 182.529 40.0607C182.511 38.6931 182.502 37.2985 182.502 35.8769C182.502 34.4553 182.493 33.3441 182.475 32.5479C182.475 32.053 182.435 31.0363 182.364 29.4888C182.287 27.9412 182.261 26.7041 182.279 25.7774C182.279 25.377 182.422 25.0486 182.704 24.7832C182.985 24.5177 183.325 24.3828 183.723 24.3828C184.117 24.3828 184.448 24.5267 184.712 24.8102C184.976 25.0936 185.11 25.4355 185.11 25.8359C185.092 26.7446 185.119 27.9592 185.195 29.4798C185.271 30.9958 185.307 32.0035 185.307 32.4939C185.307 32.9123 185.316 33.3576 185.334 33.83C188.295 31.3467 191.369 28.3551 194.558 24.8686C194.822 24.5852 195.153 24.4323 195.547 24.4143C195.94 24.3963 196.28 24.5177 196.567 24.7832C196.848 25.0486 197.001 25.3815 197.018 25.7774C197.036 26.1778 196.916 26.5152 196.652 26.8031C194.54 29.1559 192.456 31.2703 190.398 33.1507L197.672 42.4539C197.918 42.7599 198.016 43.1063 197.967 43.4931C197.918 43.8845 197.743 44.1994 197.443 44.4469C197.139 44.6943 196.795 44.7933 196.41 44.7438C196.025 44.6988 195.708 44.5188 195.462 44.2174L188.268 35.0221Z" fill="#4C8993"/>
<path d="M202.105 25.8853C202.105 26.3577 201.944 26.7581 201.622 27.082C201.299 27.4059 200.906 27.5678 200.432 27.5678C199.962 27.5678 199.564 27.4059 199.242 27.082C198.92 26.7581 198.759 26.3622 198.759 25.8853C198.759 25.413 198.92 25.0126 199.242 24.6887C199.564 24.3648 199.962 24.2028 200.445 24.1893C200.928 24.1803 201.317 24.3468 201.617 24.6887C201.944 25.0126 202.105 25.413 202.105 25.8853ZM199.005 36.8126C199.049 33.8705 199.076 31.9451 199.076 31.0363C199.076 30.6359 199.215 30.303 199.488 30.0241C199.761 29.7452 200.096 29.6102 200.494 29.6102C200.888 29.6102 201.223 29.7497 201.501 30.0241C201.774 30.2985 201.912 30.6359 201.912 31.0363C201.912 31.9451 201.89 33.8615 201.841 36.7856C201.792 39.7053 201.787 41.8781 201.827 43.2997C201.827 43.7001 201.698 44.0375 201.429 44.3254C201.161 44.6133 200.834 44.7528 200.441 44.7528C200.047 44.7528 199.707 44.6223 199.421 44.3524C199.139 44.087 198.996 43.7541 198.996 43.3582C198.951 41.9366 198.96 39.7547 199.005 36.8126Z" fill="#4C8993"/>
<path d="M215.033 44.4694C214.787 44.2984 214.617 43.9745 214.523 43.5021C213.713 44.0915 212.863 44.4694 211.977 44.6403C210.752 44.8697 209.629 44.8023 208.609 44.4424C207.589 44.0825 206.73 43.4841 206.032 42.6519C204.766 41.1718 204.144 39.2959 204.167 37.0196C204.185 34.9727 204.847 33.2047 206.149 31.7291C207.714 29.9656 209.772 29.3088 212.317 29.7632C213.185 29.9162 213.847 30.1141 214.299 30.3615L214.241 25.8089C214.241 25.4085 214.38 25.0711 214.653 24.7832C214.925 24.4998 215.256 24.3558 215.641 24.3558C216.026 24.3558 216.361 24.4953 216.648 24.7697C216.934 25.0441 217.073 25.3725 217.073 25.7504C217.202 34.4013 217.269 40.2541 217.269 43.3087C217.269 43.7091 217.131 44.042 216.858 44.3209C216.585 44.5953 216.25 44.7348 215.851 44.7348C215.552 44.7258 215.279 44.6403 215.033 44.4694ZM212.599 41.4507C212.993 41.2618 213.275 41.1043 213.436 40.9829C213.597 40.8614 213.718 40.749 213.803 40.6545C213.888 40.56 213.986 40.452 214.098 40.3261C214.21 40.2046 214.313 40.0067 214.411 39.7412C214.411 37.3345 214.393 35.418 214.353 33.9919C214.335 33.9919 214.313 33.983 214.295 33.965C213.503 33.2812 213.105 32.9303 213.105 32.9123C212.899 32.7818 212.465 32.6558 211.803 32.5434C210.295 32.278 209.114 32.6378 208.264 33.6231C207.415 34.5543 206.99 35.6834 206.99 37.0106C206.972 38.5851 207.365 39.8537 208.179 40.8074C208.989 41.7656 210.085 42.112 211.463 41.8466C211.825 41.7746 212.206 41.6397 212.599 41.4507Z" fill="#4C8993"/>
<path d="M220.101 43.0163C219.802 42.6159 219.582 42.0851 219.448 41.4238L219.336 40.7984C219.296 40.6095 219.26 40.4565 219.224 40.3441C219.113 39.9842 219.148 39.6333 219.336 39.2914C219.524 38.9495 219.806 38.7336 220.186 38.6346C220.562 38.5401 220.92 38.5761 221.26 38.747C221.6 38.918 221.823 39.1924 221.94 39.5703C221.998 39.7772 222.052 40.0157 222.11 40.2811C222.128 40.3756 222.141 40.4655 222.15 40.551C222.159 40.6365 222.19 40.7849 222.248 40.9919C222.307 41.2393 222.436 41.4463 222.647 41.6172C222.875 41.8241 223.21 41.9591 223.667 42.0176C224.423 42.1705 225.232 42.148 226.1 41.9591C226.95 41.7702 227.608 41.4957 228.082 41.1358C228.422 40.8344 228.565 40.5195 228.507 40.1956C228.449 39.6648 228.122 39.2644 227.518 38.999C227.142 38.828 226.158 38.5986 224.575 38.3152C222.933 37.9913 221.774 37.5774 221.094 37.0645C219.851 36.1333 219.444 34.7522 219.878 32.9078C220.141 31.8461 220.683 31.0633 221.506 30.5595C222.325 30.0556 223.237 29.7767 224.235 29.7182C225.085 29.6822 225.948 29.7812 226.825 30.0151C227.702 30.2536 228.453 30.5775 229.075 30.9958C229.281 31.1488 229.5 31.3287 229.728 31.5357C229.956 31.7426 230.175 31.972 230.395 32.2195C230.609 32.4669 230.739 32.5974 230.775 32.6199C231.057 32.9033 231.2 33.2317 231.2 33.6006C231.2 33.9695 231.061 34.2934 230.788 34.5678C230.515 34.8422 230.184 34.9817 229.8 34.9817C229.415 34.9817 229.079 34.8512 228.793 34.5813C228.605 34.4103 228.417 34.2304 228.229 34.0414L227.831 33.5556C227.719 33.4611 227.585 33.3666 227.438 33.2722C227.08 33.0427 226.619 32.8493 226.051 32.6873C225.483 32.5254 224.928 32.4534 224.382 32.4759C223.385 32.5344 222.808 32.8853 222.656 33.5286C222.486 34.2124 222.544 34.6578 222.826 34.8647C223.166 35.1121 223.93 35.3595 225.116 35.6025C226.87 35.9039 228.068 36.2008 228.708 36.4842C230.256 37.186 231.133 38.3152 231.338 39.8717C231.508 41.1448 231.039 42.2425 229.925 43.1737C229.075 43.8755 228.001 44.3614 226.7 44.6268C225.456 44.9102 224.266 44.9417 223.134 44.7123C221.73 44.4784 220.723 43.907 220.101 43.0163Z" fill="#4C8993"/>
<path d="M246.472 44.5548C245.47 44.2894 244.606 43.9205 243.868 43.4437C243.036 42.9128 242.289 42.1615 241.618 41.1943C240.947 40.2271 240.424 39.1699 240.048 38.0228C239.672 36.8756 239.484 35.7689 239.484 34.7072C239.484 33.2857 239.784 31.9001 240.388 30.555C240.992 29.2099 241.842 27.9862 242.933 26.884C243.761 26.0518 244.696 25.404 245.734 24.9496C246.959 24.4368 248.194 24.1803 249.442 24.1803C250.516 24.1803 251.594 24.3873 252.668 24.8057C253.365 25.0711 253.96 25.4085 254.452 25.8179C254.945 26.2272 255.481 26.7626 256.067 27.4239L256.917 28.4766C257.145 28.76 257.257 29.0569 257.257 29.3583C257.257 29.7362 257.105 30.0691 256.805 30.3525C256.501 30.6359 256.152 30.7799 255.759 30.7799C255.365 30.7799 255.012 30.5999 254.712 30.2401L253.665 28.9579C253.401 28.6745 253.088 28.3956 252.73 28.1167C252.372 27.8378 252.014 27.6308 251.657 27.4779C250.847 27.136 250.033 26.992 249.223 27.0505C247.505 27.2035 246.065 27.8378 244.893 28.9579C243.175 30.6269 242.316 32.5434 242.316 34.7072C242.316 35.8634 242.625 37.0735 243.238 38.3377C243.85 39.5973 244.571 40.506 245.403 41.0549C245.913 41.3788 246.526 41.6352 247.241 41.8241C247.957 42.0131 248.695 42.1075 249.447 42.1075C251.728 42.1075 253.218 41.4732 253.916 40.2001C254.045 39.9707 254.206 39.5343 254.399 38.891L254.681 37.9823C254.792 37.6809 254.967 37.4424 255.204 37.2715C255.441 37.1005 255.687 37.0151 255.956 37.0151C256.331 37.0151 256.671 37.15 256.975 37.4154C257.275 37.6809 257.427 38.0228 257.427 38.4411C257.427 38.6121 257.4 38.783 257.342 38.954L257.145 39.5523C256.823 40.5375 256.582 41.2123 256.412 41.5722C255.826 42.5979 255.007 43.3852 253.951 43.934C252.896 44.4828 251.688 44.8157 250.328 44.9282C250.158 44.9462 249.894 44.9552 249.536 44.9552C248.489 44.9507 247.469 44.8202 246.472 44.5548Z" fill="#ED9931"/>
<path d="M261.042 43.0163C259.852 41.7837 259.118 40.2001 258.836 38.2657C258.631 36.7496 258.81 35.3056 259.373 33.9425C260.053 32.197 261.127 30.9059 262.599 30.0736C262.898 29.9027 263.279 29.7812 263.73 29.7047C263.748 29.7047 263.882 29.6957 264.128 29.6777C264.222 29.6597 264.298 29.6417 264.357 29.6192C264.638 29.5608 264.92 29.5923 265.207 29.7047C265.283 29.7047 265.462 29.7092 265.743 29.7182C266.025 29.7272 266.213 29.7362 266.307 29.7452C266.401 29.7542 266.566 29.7722 266.804 29.8037C267.041 29.8307 267.233 29.8667 267.385 29.9027L267.922 30.1006C268.15 30.1771 268.365 30.2716 268.575 30.384C268.781 30.4965 269.009 30.6314 269.255 30.7844C270.481 31.6212 271.331 32.7908 271.8 34.2979C272.27 35.8049 272.395 37.0241 272.167 37.9553C271.997 38.981 271.697 39.9347 271.264 40.8164C270.83 41.6982 270.23 42.4809 269.465 43.1647C268.7 43.8485 267.886 44.3029 267.018 44.5323C264.522 45.1307 262.531 44.6313 261.042 43.0163ZM268.217 40.2991C268.794 39.5703 269.17 38.7965 269.349 37.9778C269.528 37.1635 269.461 36.2683 269.152 35.2876C268.839 34.3114 268.347 33.6051 267.667 33.1687C267.461 33.0157 267.291 32.9078 267.157 32.8403C267.023 32.7728 266.871 32.7188 266.692 32.6693C266.513 32.6244 266.37 32.5974 266.267 32.5974C266.164 32.5974 265.94 32.5884 265.6 32.5704C265.26 32.5524 264.961 32.5344 264.692 32.5119C264.634 32.5119 264.571 32.5029 264.495 32.4849C264.29 32.5029 264.173 32.5119 264.155 32.5119L263.959 32.5704C263.126 33.0247 262.491 33.749 262.048 34.7477C261.605 35.7464 261.476 36.7721 261.668 37.8338C261.874 39.1249 262.339 40.1012 263.055 40.767C263.829 41.4867 264.858 41.7522 266.137 41.5632C266.947 41.4508 267.64 41.0324 268.217 40.2991Z" fill="#ED9931"/>
<path d="M284.84 44.4694C284.594 44.2984 284.424 43.9745 284.33 43.5021C283.521 44.0915 282.671 44.4694 281.785 44.6403C280.559 44.8697 279.436 44.8023 278.417 44.4424C277.397 44.0825 276.538 43.4841 275.84 42.6519C274.574 41.1718 273.952 39.2959 273.974 37.0196C273.992 34.9727 274.654 33.2047 275.956 31.7291C277.522 29.9656 279.58 29.3088 282.125 29.7632C282.993 29.9162 283.655 30.1141 284.107 30.3615L284.049 25.8089C284.049 25.4085 284.183 25.0711 284.46 24.7832C284.733 24.4998 285.064 24.3558 285.449 24.3558C285.833 24.3558 286.169 24.4953 286.455 24.7697C286.737 25.0441 286.88 25.3725 286.88 25.7504C287.01 34.4013 287.077 40.2541 287.077 43.3087C287.077 43.7091 286.938 44.042 286.666 44.3209C286.393 44.5953 286.057 44.7348 285.659 44.7348C285.359 44.7258 285.086 44.6403 284.84 44.4694ZM282.407 41.4507C282.805 41.2618 283.082 41.1043 283.243 40.9829C283.404 40.8614 283.525 40.749 283.61 40.6545C283.695 40.56 283.794 40.452 283.905 40.3261C284.017 40.2001 284.12 40.0067 284.219 39.7412C284.219 37.3345 284.201 35.418 284.16 33.9919C284.143 33.9919 284.125 33.983 284.102 33.965C283.31 33.2812 282.912 32.9303 282.912 32.9123C282.707 32.7818 282.273 32.6558 281.611 32.5434C280.099 32.278 278.922 32.6378 278.072 33.6231C277.222 34.5543 276.797 35.6834 276.797 37.0106C276.779 38.5851 277.173 39.8537 277.987 40.8074C278.797 41.7656 279.893 42.112 281.271 41.8466C281.633 41.7746 282.009 41.6397 282.407 41.4507Z" fill="#ED9931"/>
<path d="M293.242 44.015C292.204 43.5426 291.412 42.9443 290.866 42.22C290.32 41.5002 289.922 40.8344 289.676 40.2271C289.43 39.6198 289.278 39.017 289.224 38.4186C289.166 37.8203 289.198 37.0465 289.309 36.0973C289.439 35.3011 289.721 34.5138 290.146 33.7355C290.571 32.9573 291.135 32.26 291.841 31.6436C292.548 31.0273 293.403 30.555 294.4 30.2221C295.398 29.8892 296.467 29.7902 297.599 29.9251C298.695 30.0601 299.625 30.357 300.399 30.8204C301.173 31.2838 301.831 31.8776 302.381 32.5974C302.85 33.2047 303.141 33.659 303.244 33.965C303.347 34.2709 303.441 34.5543 303.526 34.8197C303.611 35.0851 303.683 35.3146 303.736 35.5035C303.794 35.6924 303.844 35.8859 303.893 36.0883C303.942 36.2908 303.973 36.5202 303.991 36.7856C304.009 37.1455 303.942 37.4784 303.794 37.7798C303.642 38.0812 303.419 38.3197 303.114 38.4906C302.868 38.5851 302.604 38.6346 302.323 38.6346L297.482 38.7201C294.087 38.7381 292.387 38.7785 292.387 38.8325H292.302C292.548 39.7997 293.063 40.56 293.846 41.1088C294.628 41.6577 295.697 41.9816 297.057 42.0761C297.791 42.1121 298.404 42.0761 298.896 41.9636C299.442 41.8106 299.84 41.6757 300.086 41.5497C300.332 41.4283 300.632 41.2618 300.99 41.0504C301.347 40.9199 301.705 40.9379 302.063 41.1088C302.421 41.2798 302.667 41.5452 302.797 41.9051C302.927 42.265 302.913 42.6159 302.757 42.9578C302.595 43.2997 302.345 43.5651 302.005 43.7541C301.701 43.925 301.392 44.0735 301.07 44.1949C300.748 44.3164 300.278 44.4649 299.656 44.6358C299.035 44.8068 298.109 44.8832 296.883 44.8652C295.496 44.7708 294.279 44.4874 293.242 44.015ZM300.882 35.8769C300.712 35.3101 300.439 34.7657 300.064 34.2529C299.308 33.3801 298.377 32.8763 297.263 32.7458C296.091 32.5929 295.067 32.8448 294.181 33.5016C293.295 34.1539 292.691 35.0042 292.369 36.0478C293.461 35.9894 296.301 35.9309 300.882 35.8769Z" fill="#ED9931"/>
<path d="M303.351 53.0753H187.937V53.8356H303.351V53.0753Z" fill="#4C8993"/>
<path d="M303.351 55.3516H187.937V56.1119H303.351V55.3516Z" fill="#ED9931"/>
<path d="M0 46.1474L20.5867 35.4855V38.5626L3.23875 47.308V47.398L20.5867 56.1434V59.2205L0 48.5587V46.1474Z" fill="#ED9931"/>
<path d="M40.3635 61.0065L52.7415 28.661H55.7565L43.3339 61.0065H40.3635Z" fill="#ED9931"/>
<path d="M77.0635 48.6036L56.4768 59.2205V56.1434L73.9544 47.398V47.308L56.4768 38.5626V35.4855L77.0635 46.1024V48.6036Z" fill="#ED9931"/>
<path d="M1.3645 45.2341L21.9512 34.5723V37.6494L4.60326 46.3948V46.4848L21.9512 55.2302V58.3073L1.3645 47.6409V45.2341Z" fill="#4C8993"/>
<path d="M41.7327 60.0887L54.1106 27.7433H57.1257L44.703 60.0887H41.7327Z" fill="#4C8993"/>
<path d="M78.428 47.6859L57.8413 58.3028V55.2257L75.319 46.4803V46.3903L57.8413 37.6494V34.5723L78.428 45.1891V47.6859Z" fill="#4C8993"/>
<path d="M60.3733 11.3411C60.1764 11.1837 60.1138 11.0262 60.1541 10.7608C60.2569 10.0725 60.2569 9.37073 60.1362 8.67793C60.0512 8.18757 59.9841 7.69722 59.8499 7.22036C59.6575 6.53206 59.3846 5.87076 59.0223 5.24994C58.5347 4.40869 57.9397 3.65741 57.2284 3.00061C56.4635 2.29881 55.618 1.71399 54.6428 1.3451C54.1239 1.14715 53.6005 0.935717 53.0637 0.809754C52.4508 0.674794 51.8246 0.629807 51.3548 0.566826C50.4065 0.602815 49.6236 0.674794 48.8497 0.859239C47.8387 1.10217 46.9127 1.52504 46.0449 2.07838C45.1457 2.65421 44.3584 3.374 43.7232 4.24674C43.6158 4.39969 43.5085 4.46267 43.3116 4.45368C42.4796 4.40419 41.7773 4.67411 41.3031 5.3939C40.8826 6.01472 40.8289 6.68052 41.066 7.38681C41.2136 7.81418 41.491 8.12009 41.8175 8.41251C41.8802 8.47099 41.9249 8.59245 41.9204 8.67793C41.8309 9.68113 41.822 10.6753 42.0322 11.6605C42.3946 13.3565 43.1506 14.8546 44.3405 16.1232C45.0876 16.924 45.951 17.5673 46.9262 18.0622C47.5211 18.3591 48.1295 18.5795 48.7692 18.7505C49.9636 19.0744 51.167 19.1193 52.3793 18.9394C52.9116 18.8584 53.4395 18.6965 53.9584 18.539C54.8262 18.2871 55.6046 17.8552 56.3382 17.3379C57.1032 16.8025 57.7697 16.1547 58.3289 15.4079C58.4631 15.228 58.5928 15.1515 58.8254 15.174C59.7738 15.255 60.5969 14.7466 60.9772 13.8784C61.344 13.0191 61.1472 11.9485 60.3733 11.3411ZM59.8185 13.3655C59.5904 13.8424 59.0133 14.0583 58.5749 13.8244C58.472 13.7659 58.3647 13.7299 58.2618 13.667C58.0963 13.5635 58.0068 13.6265 57.9039 13.7749C57.6221 14.1978 57.3447 14.6207 57.0227 15.0076C56.544 15.5924 55.9535 16.0647 55.3272 16.4876C54.7994 16.8385 54.2313 17.1129 53.6408 17.3199C53.0861 17.5178 52.509 17.6348 51.923 17.7113C50.6883 17.8822 49.5073 17.6978 48.3487 17.2974C47.5748 17.023 46.8546 16.6181 46.197 16.1142C45.3828 15.4754 44.7163 14.7151 44.1929 13.8289C43.7903 13.1361 43.4951 12.3938 43.3116 11.6111C43.164 10.9723 43.1148 10.3289 43.1193 9.69013C43.1238 9.06482 43.1998 8.4395 43.3564 7.82768C43.3698 7.78269 43.3161 7.67922 43.2669 7.65673C43.1148 7.58475 42.9493 7.54426 42.7927 7.48578C42.2828 7.29684 42.0412 6.739 42.2604 6.23965C42.4483 5.81677 42.994 5.54685 43.5129 5.81677C43.6695 5.89775 43.8395 5.96523 44.0274 6.05071C44.2153 5.76729 44.3763 5.48837 44.5597 5.23195C45.4365 4.00831 46.5638 3.10408 47.9372 2.50125C48.5992 2.20884 49.2971 2.04239 50.0083 1.92542C50.827 1.79496 51.6456 1.82645 52.4464 1.97041C53.1755 2.10087 53.8778 2.3348 54.5399 2.6722C55.7164 3.26603 56.6961 4.08929 57.4655 5.15997C57.9531 5.83927 58.32 6.57255 58.5749 7.35982C58.7718 7.96714 58.9104 8.58796 58.9418 9.23127C58.9865 10.0635 58.9418 10.8868 58.736 11.701C58.6778 11.9305 58.7315 11.9935 58.9686 12.0474C59.0939 12.0744 59.2191 12.1149 59.3354 12.1599C59.7872 12.3398 60.0198 12.9337 59.8185 13.3655Z" fill="#ED9931"/>
<path d="M59.3309 12.1599C59.2101 12.1149 59.0893 12.0744 58.964 12.0474C58.7269 11.989 58.6777 11.926 58.7314 11.701C58.9372 10.8868 58.9819 10.0635 58.9372 9.23127C58.9014 8.58796 58.7672 7.96714 58.5704 7.35982C58.3154 6.56806 57.9486 5.83477 57.461 5.15997C56.6915 4.08929 55.7119 3.26603 54.5354 2.67221C53.8733 2.33481 53.171 2.10538 52.4418 1.97041C51.6366 1.82646 50.8224 1.79497 50.0038 1.92543C49.2925 2.0379 48.5947 2.20884 47.9326 2.50126C46.5592 3.10408 45.4319 4.00831 44.5552 5.23195C44.3762 5.48837 44.2107 5.76729 44.0228 6.05071C43.8349 5.96523 43.6649 5.89775 43.5084 5.81678C42.9939 5.54236 42.4437 5.81678 42.2558 6.23965C42.0366 6.73901 42.2782 7.29684 42.7882 7.48578C42.9447 7.54427 43.1102 7.58476 43.2623 7.65673C43.3115 7.67923 43.3652 7.7827 43.3518 7.82768C43.1952 8.435 43.1192 9.06032 43.1147 9.69013C43.1102 10.3334 43.1594 10.9768 43.3071 11.6111C43.495 12.3983 43.7902 13.1361 44.1883 13.8289C44.7072 14.7151 45.3783 15.4799 46.1924 16.1142C46.85 16.6226 47.5658 17.023 48.3441 17.2974C49.5028 17.7023 50.6882 17.8822 51.9184 17.7113C52.5089 17.6303 53.086 17.5178 53.6362 17.3199C54.2267 17.1129 54.7948 16.843 55.3227 16.4876C55.9489 16.0647 56.5394 15.5924 57.0181 15.0076C57.3402 14.6207 57.6175 14.1933 57.8994 13.7749C58.0022 13.6265 58.0917 13.5635 58.2572 13.667C58.3601 13.7299 58.4675 13.7704 58.5704 13.8244C59.0132 14.0583 59.5903 13.8424 59.814 13.3655C60.0198 12.9337 59.7871 12.3398 59.3309 12.1599ZM49.0062 8.08861C49.5654 8.07061 49.968 8.58346 49.9188 9.01083C49.9143 9.55067 49.5341 9.89707 48.957 9.89707C48.4426 9.90157 48.0757 9.42921 48.0981 9.00184C48.1205 8.48899 48.4291 8.1021 49.0062 8.08861ZM52.7012 14.4722C52.151 14.6927 51.5739 14.7691 51.0774 14.8096C50.3661 14.7826 49.5877 14.6612 48.787 14.2563C47.8521 13.7794 47.1587 13.0731 46.689 12.1419C46.5548 11.881 46.5637 11.8765 46.8098 11.7415C47.2079 11.5301 47.19 11.5346 47.4226 11.9305C48.2726 13.3251 49.4938 14.0583 51.14 14.0224C51.5605 14.0089 51.9676 13.9504 52.3568 13.7884C52.5089 13.7254 52.6431 13.7299 52.6923 13.9414C52.7102 14.0448 52.7594 14.1393 52.8131 14.2293C52.8623 14.3598 52.8131 14.4272 52.7012 14.4722ZM53.5333 11.719C53.1083 11.782 52.6118 11.3456 52.6118 10.8598C52.6118 10.2435 52.992 9.91956 53.5288 9.87908C53.9762 9.84309 54.4101 10.2795 54.4235 10.7338C54.4414 11.3052 54.0791 11.7055 53.5333 11.719Z" fill="#ED9931"/>
<path d="M52.7012 14.4722C52.151 14.6927 51.5739 14.7691 51.0774 14.8096C50.3661 14.7826 49.5877 14.6612 48.787 14.2563C47.852 13.7794 47.1587 13.0731 46.6889 12.1419C46.5547 11.881 46.5637 11.8765 46.8097 11.7415C47.2079 11.5301 47.19 11.5346 47.4226 11.9305C48.2725 13.3251 49.4938 14.0583 51.14 14.0224C51.5605 14.0089 51.9676 13.9504 52.3568 13.7884C52.5089 13.7254 52.6431 13.7299 52.6923 13.9414C52.7102 14.0448 52.7594 14.1393 52.8131 14.2293C52.8623 14.3598 52.8131 14.4272 52.7012 14.4722Z" fill="#ED9931"/>
<path d="M54.4192 10.7383C54.4415 11.3052 54.0792 11.7055 53.5289 11.7235C53.104 11.7865 52.6074 11.3501 52.6074 10.8643C52.6074 10.248 52.9877 9.92406 53.5245 9.88357C53.9718 9.84758 54.4102 10.2795 54.4192 10.7383Z" fill="#ED9931"/>
<path d="M49.9144 9.01083C49.9099 9.55067 49.5297 9.89707 48.9526 9.89707C48.4382 9.90157 48.0714 9.4292 48.0937 9.00183C48.1206 8.48448 48.4292 8.0976 49.0063 8.0841C49.5655 8.0751 49.9681 8.58346 49.9144 9.01083Z" fill="#ED9931"/>
<path d="M59.2414 10.7698C59.0446 10.6124 58.982 10.4549 59.0222 10.1895C59.1251 9.50119 59.1251 8.7994 59.0043 8.1066C58.9193 7.61625 58.8522 7.12589 58.718 6.64903C58.5257 5.96074 58.2528 5.29943 57.8905 4.67862C57.4028 3.83736 56.8079 3.08609 56.0966 2.42928C55.3317 1.72749 54.4862 1.14266 53.511 0.773769C52.9921 0.575827 52.4687 0.36439 51.9319 0.238427C51.319 0.103467 50.6927 0.0584801 50.223 -0.00450134C49.2746 0.031488 48.4918 0.103467 47.7179 0.287912C46.7069 0.530841 45.7809 0.953716 44.9131 1.50705C44.0139 2.08288 43.2266 2.80267 42.5914 3.67541C42.484 3.82837 42.3766 3.89135 42.1798 3.88235C41.3478 3.83287 40.6454 4.10279 40.1712 4.82257C39.7507 5.44339 39.6971 6.10919 39.9342 6.81548C40.0818 7.24286 40.3591 7.54877 40.6857 7.84118C40.7483 7.89966 40.7931 8.02113 40.7886 8.1066C40.6991 9.10981 40.6902 10.104 40.9004 11.0892C41.2628 12.7852 42.0188 14.2833 43.2087 15.5519C43.9558 16.3527 44.8191 16.996 45.7943 17.4908C46.3893 17.7877 46.9977 18.0082 47.6374 18.1791C48.8318 18.503 50.0351 18.548 51.2474 18.3681C51.7798 18.2871 52.3076 18.1251 52.8265 17.9677C53.6944 17.7158 54.4728 17.2839 55.2064 16.7665C55.9714 16.2312 56.6379 15.5834 57.1971 14.8366C57.3313 14.6567 57.461 14.5802 57.6936 14.6027C58.642 14.6837 59.4651 14.1753 59.8453 13.3071C60.2122 12.4478 60.0153 11.3771 59.2414 10.7698ZM58.6867 12.7942C58.4586 13.2711 57.8815 13.487 57.4431 13.2531C57.3402 13.1946 57.2329 13.1586 57.13 13.0956C56.9645 12.9922 56.875 13.0551 56.7721 13.2036C56.4903 13.6265 56.2129 14.0493 55.8908 14.4362C55.4122 15.0211 54.8217 15.4934 54.1954 15.9163C53.6675 16.2672 53.0994 16.5416 52.5089 16.7486C51.9542 16.9465 51.3772 17.0635 50.7911 17.1399C49.5565 17.3109 48.3755 17.1264 47.2169 16.7261C46.443 16.4516 45.7228 16.0468 45.0652 15.5429C44.251 14.9041 43.5845 14.1438 43.0611 13.2576C42.6585 12.5648 42.3632 11.8225 42.1798 11.0397C42.0322 10.4009 41.983 9.75762 41.9875 9.1188C41.9919 8.49349 42.068 7.86817 42.2245 7.25635C42.238 7.21137 42.1843 7.1079 42.1351 7.0854C41.983 7.01343 41.8175 6.97294 41.6609 6.91445C41.1509 6.72551 40.9094 6.16768 41.1286 5.66832C41.3164 5.24545 41.8622 4.97553 42.3811 5.24545C42.5377 5.32642 42.7077 5.3939 42.8956 5.47938C43.0834 5.19596 43.2445 4.91705 43.4279 4.66062C44.3047 3.43698 45.432 2.53275 46.8053 1.92993C47.4674 1.63751 48.1652 1.47106 48.8765 1.3541C49.6952 1.22364 50.5138 1.25513 51.3145 1.39908C52.0437 1.52955 52.746 1.76348 53.4081 2.10088C54.5846 2.6947 55.5643 3.51796 56.3337 4.58864C56.8213 5.26794 57.1881 6.00122 57.4431 6.78849C57.6399 7.39581 57.7786 8.01663 57.8099 8.65994C57.8547 9.49219 57.8099 10.3155 57.6042 11.1297C57.546 11.3591 57.5997 11.4221 57.8368 11.4761C57.962 11.5031 58.0873 11.5436 58.2036 11.5886C58.6554 11.773 58.888 12.3623 58.6867 12.7942Z" fill="#4C8993"/>
<path d="M58.199 11.5886C58.0782 11.5436 57.9575 11.5031 57.8322 11.4761C57.5951 11.4176 57.5459 11.3546 57.5996 11.1297C57.8054 10.3154 57.8501 9.49219 57.8054 8.65993C57.7696 8.01662 57.6354 7.39581 57.4385 6.78849C57.1835 5.99672 56.8167 5.26344 56.3291 4.58864C55.5597 3.51795 54.58 2.6947 53.4035 2.10087C52.7414 1.76347 52.0391 1.53404 51.31 1.39908C50.5047 1.25512 49.6906 1.22363 48.8719 1.35409C48.1607 1.46656 47.4628 1.63751 46.8007 1.92992C45.4274 2.53275 44.3001 3.43698 43.4233 4.66062C43.2444 4.91704 43.0789 5.19596 42.891 5.47937C42.7031 5.3939 42.5331 5.32642 42.3765 5.24544C41.8621 4.97102 41.3119 5.24544 41.124 5.66832C40.9048 6.16767 41.1463 6.72551 41.6563 6.91445C41.8129 6.97293 41.9784 7.01342 42.1305 7.0854C42.1797 7.10789 42.2334 7.21136 42.22 7.25635C42.0634 7.86367 41.9873 8.48898 41.9829 9.1188C41.9784 9.76211 42.0276 10.4054 42.1752 11.0397C42.3631 11.827 42.6584 12.5648 43.0565 13.2576C43.5754 14.1438 44.2464 14.9086 45.0606 15.5429C45.7182 16.0512 46.4339 16.4516 47.2123 16.7261C48.3709 17.1309 49.5564 17.3109 50.7866 17.1399C51.3771 17.059 51.9541 16.9465 52.5044 16.7485C53.0948 16.5416 53.663 16.2717 54.1908 15.9163C54.8171 15.4934 55.4076 15.0211 55.8863 14.4362C56.2083 14.0493 56.4857 13.622 56.7675 13.2036C56.8704 13.0551 56.9599 12.9922 57.1254 13.0956C57.2283 13.1586 57.3356 13.1991 57.4385 13.2531C57.8814 13.487 58.4585 13.2711 58.6821 12.7942C58.8879 12.3623 58.6553 11.773 58.199 11.5886ZM47.8744 7.52177C48.4335 7.50378 48.8362 8.01662 48.7869 8.444C48.7825 8.98384 48.4022 9.33024 47.8252 9.33024C47.3107 9.33473 46.9439 8.86237 46.9663 8.435C46.9931 7.91765 47.2973 7.53077 47.8744 7.52177ZM51.5694 13.9054C51.0192 14.1258 50.4421 14.2023 49.9456 14.2428C49.2343 14.2158 48.4559 14.0943 47.6552 13.6894C46.7202 13.2126 46.0268 12.5063 45.5571 11.5751C45.4229 11.3141 45.4319 11.3097 45.6779 11.1747C46.0761 10.9633 46.0582 10.9678 46.2908 11.3636C47.1407 12.7582 48.362 13.4915 50.0082 13.4555C50.4287 13.442 50.8358 13.3835 51.225 13.2216C51.3771 13.1586 51.5113 13.1631 51.5605 13.3745C51.5784 13.478 51.6276 13.5725 51.6812 13.6625C51.7305 13.7929 51.6812 13.8604 51.5694 13.9054ZM52.4015 11.1522C51.9765 11.2152 51.4799 10.7788 51.4799 10.293C51.4799 9.67663 51.8602 9.35273 52.397 9.31224C52.8443 9.27625 53.2783 9.71262 53.2917 10.167C53.3096 10.7383 52.9472 11.1342 52.4015 11.1522Z" fill="#00A399"/>
<path d="M51.5694 13.9054C51.0192 14.1258 50.4421 14.2023 49.9455 14.2428C49.2343 14.2158 48.4559 14.0943 47.6551 13.6895C46.7202 13.2126 46.0268 12.5063 45.5571 11.5751C45.4229 11.3142 45.4319 11.3097 45.6779 11.1747C46.076 10.9633 46.0581 10.9678 46.2908 11.3636C47.1407 12.7582 48.3619 13.4915 50.0082 13.4555C50.4287 13.442 50.8357 13.3835 51.2249 13.2216C51.377 13.1586 51.5112 13.1631 51.5604 13.3745C51.5783 13.478 51.6275 13.5725 51.6812 13.6625C51.7304 13.7929 51.6812 13.8604 51.5694 13.9054Z" fill="white"/>
<path d="M53.2873 10.167C53.3097 10.7338 52.9473 11.1342 52.3971 11.1522C51.9721 11.2152 51.4756 10.7788 51.4756 10.293C51.4756 9.67664 51.8558 9.35273 52.3926 9.31225C52.84 9.28076 53.2784 9.71263 53.2873 10.167Z" fill="white"/>
<path d="M48.7826 8.444C48.7781 8.98384 48.3979 9.33024 47.8208 9.33024C47.3064 9.33474 46.9395 8.86238 46.9619 8.435C46.9887 7.91766 47.2974 7.53077 47.8745 7.51727C48.4337 7.50378 48.8363 8.01663 48.7826 8.444Z" fill="white"/>
<path d="M48.0311 21.4901C48.1742 21.5306 48.3174 21.5621 48.465 21.5981L44.6894 32.8223C42.7166 38.6526 40.7304 44.4784 38.7487 50.3131C37.5588 53.8221 36.3197 57.3176 35.2192 60.858C34.5795 62.9184 33.5104 64.4255 31.3318 64.9248C30.4953 65.1183 29.6408 64.9968 28.7909 65.0058C25.5343 65.0193 23.4183 62.0232 24.4606 58.9101C25.5432 55.6845 26.6392 52.4635 27.7173 49.2425C28.5941 46.6242 29.4485 44.0015 30.3253 41.3833C31.5376 37.7663 32.8036 34.1764 33.9398 30.5325C34.6377 28.2966 33.573 25.9078 31.721 24.6392C30.6295 23.8924 29.4127 23.672 28.1378 23.672C25.3822 23.6675 22.6265 23.672 19.8664 23.6675C19.0925 23.6675 18.3544 23.4966 17.67 23.0827C15.2141 21.5981 15.0709 18.629 15.9209 16.1637C16.6187 14.1438 18.3723 13.4285 20.4032 13.415C22.6713 13.397 24.9393 13.415 27.2028 13.4105L38.6145 13.3925C39.1692 14.9221 40.0192 16.2942 41.1331 17.4908C42.0948 18.521 43.2266 19.3758 44.5284 20.0326C44.7028 20.1181 44.8863 20.1855 45.0607 20.2665C45.2575 20.379 45.4588 20.5004 45.6602 20.6039C46.4072 20.9728 47.1901 21.2607 48.0311 21.4901Z" fill="#02A99C"/>
<path d="M50.5048 14.7646C50.402 14.7511 50.2991 14.7376 50.2007 14.7196C50.1201 14.7062 50.0441 14.6927 49.9636 14.6747C49.5833 14.5892 49.1897 14.4632 48.7871 14.2608C48.6931 14.2113 48.5992 14.1573 48.5097 14.1078C48.4292 14.0628 48.3531 14.0134 48.2726 13.9594C48.2592 13.9549 48.2547 13.9459 48.2502 13.9414C48.4023 13.9909 48.5455 14.0358 48.6931 14.0718C48.7871 14.0988 48.8855 14.1168 48.9749 14.1348C49.0957 14.1573 49.212 14.1753 49.3328 14.1933C49.3999 14.2068 49.476 14.2113 49.5431 14.2158C49.6773 14.2338 49.8159 14.2383 49.9501 14.2428C50.0575 14.2293 50.1693 14.2248 50.2856 14.2068C50.3841 14.3777 50.4601 14.5667 50.5048 14.7646Z" fill="#02A99C"/>
<path d="M48.3533 13.0686C48.2683 12.9967 48.1878 12.9202 48.1162 12.8392C48.0491 12.7762 47.9865 12.7042 47.9193 12.6278C47.8344 12.5288 47.7538 12.4298 47.6778 12.3219H47.0381C47.3781 12.6638 47.7583 12.9247 48.1788 13.1136C48.2459 13.1406 48.313 13.1721 48.3846 13.1946C48.4562 13.2216 48.5322 13.2441 48.6038 13.2666C48.5188 13.2036 48.4338 13.1361 48.3533 13.0686ZM48.6038 13.2666C48.6038 13.2666 48.6038 13.2711 48.6083 13.2711C48.644 13.2846 48.6754 13.2891 48.7111 13.2981C48.6754 13.2891 48.6396 13.2801 48.6038 13.2666ZM49.5387 21.7871C49.1764 21.7421 48.8185 21.6791 48.4696 21.5981L44.6895 32.8223C42.7168 38.6526 40.7306 44.4784 38.7488 50.3131C37.5589 53.8221 36.3198 57.3176 35.2193 60.858C34.5796 62.9184 33.5105 64.4255 31.3319 64.9248C30.4954 65.1183 29.641 64.9968 28.791 65.0058C25.5344 65.0193 23.4184 62.0232 24.4607 58.9101C25.5433 55.6845 26.6393 52.4635 27.7174 49.2425C28.5942 46.6242 29.4486 44.0015 30.3254 41.3833C31.5377 37.7663 32.8037 34.1764 33.9399 30.5325C34.6378 28.2966 33.5731 25.9078 31.7211 24.6392C30.6296 23.8924 29.4128 23.672 28.1379 23.672C25.3823 23.6675 22.6266 23.672 19.8665 23.6675C19.0926 23.6675 18.3545 23.4966 17.6701 23.0827C15.2142 21.5981 15.071 18.629 15.921 16.1637C16.6188 14.1438 18.3724 13.4285 20.4034 13.415C22.6714 13.397 24.9394 13.415 27.203 13.4105L38.6146 13.3925C38.4849 13.0461 38.3775 12.6907 38.2791 12.3264L20.1305 12.3309C17.6343 12.3488 15.6257 13.7479 14.7937 15.9388C14.4269 16.906 14.4582 17.9182 14.4582 18.9259C14.4716 22.1245 16.3147 24.2838 19.4595 24.7697C22.573 24.7652 25.6865 24.6977 28.8 24.7562C31.7122 24.8147 33.837 27.7433 32.8171 30.7484C31.3588 35.0446 29.9183 39.3499 28.4734 43.6506C26.9569 48.1493 25.4404 52.6524 23.9195 57.1466C23.7987 57.5065 23.7629 57.9024 23.4498 58.1768C23.3692 58.5997 23.2977 59.0316 23.2127 59.4499C22.6803 62.0727 24.17 64.7314 26.6527 65.6671C27.959 66.1575 29.2965 65.946 30.6251 65.964C33.0318 66 35.0314 64.5829 35.8009 62.3066C39.1559 52.4185 42.4931 42.5304 45.8437 32.6424C46.5639 30.519 47.1947 28.3686 48.0446 26.2992L48.0267 26.3172C48.152 25.9573 48.7782 24.0724 49.5387 21.7871Z" fill="#4C8891"/>
<path d="M19.4729 24.7742C22.5864 24.7652 25.6999 24.7022 28.8134 24.7607C31.7256 24.8192 33.8505 27.7523 32.8305 30.7529C31.3722 35.0491 29.9362 39.3544 28.4868 43.6551C26.9703 48.1538 25.4539 52.6524 23.9329 57.1511C23.8121 57.5065 23.7763 57.9069 23.4632 58.1768C23.4006 56.6428 23.9284 55.2257 24.3981 53.8221C26.4872 47.5869 28.6434 41.3743 30.737 35.1436C31.3946 33.1912 32.0343 31.2343 32.3071 29.1739C32.4592 28.0087 32.0343 26.9335 31.0591 26.3127C30.2136 25.7729 29.2831 25.512 28.2855 25.5075C26.5096 25.503 24.7292 25.5659 22.9577 25.485C21.7722 25.431 20.5331 25.494 19.4729 24.7742Z" fill="#EE9930"/>
<path d="M101.43 57.412C100.916 57.1331 100.513 56.7417 100.218 56.2424C99.9228 55.743 99.7751 55.1852 99.7751 54.5599C99.7751 53.7771 99.9899 53.0078 100.424 52.2476C100.853 51.4918 101.426 50.871 102.137 50.3941C102.848 49.9127 103.595 49.6743 104.383 49.6743C105.04 49.6743 105.617 49.8588 106.105 50.2232C106.593 50.5875 106.991 51.0914 107.286 51.7302C107.349 51.8607 107.353 51.9911 107.304 52.1306C107.255 52.2655 107.165 52.3825 107.036 52.4725C106.906 52.5625 106.767 52.6074 106.615 52.6074C106.432 52.6074 106.306 52.5265 106.23 52.369C105.998 51.8742 105.702 51.4918 105.345 51.2174C104.991 50.9429 104.58 50.808 104.119 50.808C103.591 50.808 103.081 50.9834 102.589 51.3388C102.097 51.6942 101.699 52.1441 101.39 52.6884C101.086 53.2373 100.929 53.7861 100.929 54.3439C100.929 54.8073 101.028 55.2212 101.225 55.5811C101.421 55.941 101.703 56.2244 102.074 56.4268C102.446 56.6293 102.875 56.7282 103.367 56.7282C103.752 56.7282 104.128 56.6203 104.495 56.4088C104.861 56.1974 105.17 55.9185 105.425 55.5721C105.68 55.2257 105.841 54.8613 105.908 54.4834C105.242 54.4969 104.53 54.5194 103.774 54.5509C103.622 54.5599 103.506 54.5194 103.421 54.4294C103.336 54.3439 103.296 54.2315 103.296 54.1055C103.296 53.9301 103.354 53.7726 103.479 53.6331C103.6 53.4937 103.761 53.4172 103.967 53.4082C104.92 53.3632 105.823 53.3407 106.678 53.3407C106.834 53.3407 106.959 53.3947 107.044 53.5072C107.129 53.6196 107.161 53.7501 107.129 53.9121L107.107 53.993C107.076 54.6408 106.866 55.2617 106.472 55.851C106.078 56.4448 105.577 56.9217 104.973 57.2906C104.369 57.655 103.752 57.8394 103.126 57.8394C102.508 57.8349 101.945 57.6954 101.43 57.412Z" fill="black"/>
<path d="M107.501 57.6729C107.411 57.5605 107.38 57.4165 107.411 57.2501L107.885 54.9468L108.409 52.414C108.454 52.2071 108.539 52.0541 108.664 51.9506C108.789 51.8472 108.928 51.7977 109.08 51.7977C109.245 51.7977 109.375 51.8517 109.465 51.9641C109.554 52.0766 109.585 52.1981 109.554 52.333L109.487 52.6074C109.621 52.4545 109.791 52.3195 109.997 52.1981C110.426 51.9641 110.86 51.8517 111.29 51.8652C111.478 51.8742 111.625 51.9236 111.733 52.0181C111.84 52.1126 111.889 52.2296 111.889 52.3645C111.889 52.54 111.826 52.6884 111.697 52.8144C111.567 52.9403 111.41 53.0033 111.218 53.0033C110.977 53.0033 110.744 53.0393 110.52 53.1068C110.297 53.1743 110.104 53.2642 109.934 53.3677C109.626 53.5522 109.38 53.7726 109.196 54.029L108.901 55.4776L108.539 57.2681C108.507 57.4525 108.427 57.592 108.301 57.6909C108.172 57.7899 108.033 57.8394 107.881 57.8394C107.72 57.8439 107.59 57.7899 107.501 57.6729Z" fill="black"/>
<path d="M111.8 57.2141C111.37 56.7912 111.151 56.2244 111.151 55.5091C111.151 54.8838 111.285 54.3035 111.554 53.7591C111.822 53.2148 112.171 52.7739 112.596 52.432C113.025 52.0901 113.473 51.8967 113.943 51.8517C114.05 51.8427 114.126 51.8337 114.175 51.8247C114.224 51.8112 114.269 51.8067 114.305 51.8067C114.394 51.8067 114.47 51.8202 114.533 51.8517H114.873C115.244 51.8517 115.584 51.9551 115.897 52.1576C116.211 52.3645 116.461 52.6434 116.64 53.0033C116.823 53.3587 116.913 53.7546 116.913 54.191C116.913 54.7938 116.765 55.3741 116.47 55.9365C116.175 56.4988 115.768 56.9577 115.244 57.3176C114.721 57.673 114.144 57.8529 113.509 57.8529C112.802 57.8439 112.229 57.637 111.8 57.2141ZM114.694 56.4223C115.012 56.2109 115.271 55.9185 115.472 55.5451C115.674 55.1717 115.772 54.7623 115.772 54.3125C115.772 53.9256 115.669 53.6017 115.459 53.3407C115.249 53.0843 115.012 52.9539 114.739 52.9539C114.573 52.9539 114.43 52.9449 114.309 52.9314C114.256 52.9224 114.206 52.9134 114.162 52.9044C114.117 52.8954 114.072 52.8864 114.028 52.8864C113.884 52.8864 113.714 52.9449 113.518 53.0573C113.209 53.2418 112.927 53.5342 112.677 53.9346C112.426 54.3349 112.301 54.8073 112.301 55.3381C112.301 55.788 112.422 56.1344 112.659 56.3773C112.896 56.6203 113.249 56.7417 113.719 56.7417C114.05 56.7372 114.376 56.6338 114.694 56.4223Z" fill="black"/>
<path d="M118.156 57.7044C118.067 57.61 118.009 57.4615 117.982 57.2546L117.924 56.7507C117.879 56.2784 117.816 55.7115 117.74 55.0502C117.62 54.1145 117.543 53.3182 117.512 52.6659C117.499 52.4005 117.548 52.1936 117.673 52.0451C117.794 51.8967 117.964 51.8202 118.183 51.8202C118.304 51.8202 118.407 51.8652 118.496 51.9551C118.586 52.0451 118.63 52.1666 118.639 52.3195C118.671 52.7829 118.707 53.2193 118.751 53.6197L118.841 54.6813L118.93 55.5586L119.145 55.1267C119.342 54.7083 119.521 54.3574 119.677 54.0785L120.008 53.4397L120.393 52.6884C120.599 52.315 120.858 52.1306 121.176 52.1306C121.359 52.1306 121.498 52.1891 121.596 52.306C121.695 52.423 121.757 52.603 121.789 52.8504L122.164 55.9635L122.518 55.1987L123.073 53.9795L123.265 53.5252C123.56 52.8504 123.739 52.45 123.811 52.3285C123.9 52.1531 123.999 52.0271 124.106 51.9461C124.213 51.8652 124.339 51.8247 124.482 51.8247C124.665 51.8247 124.795 51.9012 124.88 52.0496C124.965 52.1981 124.96 52.369 124.866 52.567C124.835 52.6299 124.804 52.6929 124.777 52.7649C124.746 52.8369 124.714 52.9134 124.674 52.9853L124.084 54.299C123.712 55.1222 123.283 55.9635 122.791 56.8317C122.728 56.9532 122.683 57.0386 122.657 57.0836C122.496 57.367 122.357 57.565 122.236 57.6775C122.115 57.7899 121.981 57.8484 121.838 57.8484C121.677 57.8484 121.547 57.7989 121.44 57.7044C121.332 57.61 121.27 57.484 121.247 57.3221C121.14 56.4403 120.992 55.3561 120.805 54.0695C120.093 55.3696 119.592 56.3818 119.297 57.1061C119.091 57.601 118.836 57.8484 118.528 57.8484C118.367 57.8439 118.246 57.7989 118.156 57.7044Z" fill="black"/>
<path d="M125.994 57.7449C125.86 57.7134 125.743 57.682 125.649 57.6415C125.555 57.6055 125.448 57.547 125.332 57.475C125.215 57.403 125.117 57.3041 125.036 57.1781C124.956 57.0521 124.898 56.9037 124.862 56.7282C124.822 56.5213 124.858 56.1209 124.965 55.5181C125.041 55.0547 125.162 54.4564 125.327 53.7276C125.359 53.5927 125.412 53.3632 125.488 53.0438L125.399 53.0573C125.233 53.0708 125.099 53.0303 125.001 52.9314C124.902 52.8324 124.862 52.7064 124.875 52.549C124.889 52.3915 124.96 52.2566 125.081 52.1351C125.202 52.0136 125.341 51.9417 125.502 51.9192L125.761 51.8967C125.86 51.4918 125.958 51.0869 126.056 50.6775C126.101 50.5201 126.191 50.3851 126.329 50.2771C126.463 50.1692 126.611 50.1197 126.768 50.1287C126.924 50.1377 127.041 50.1962 127.126 50.3131C127.211 50.4256 127.228 50.5651 127.184 50.7225L126.924 51.8067L127.425 51.7842C127.582 51.7752 127.712 51.8202 127.806 51.9192C127.899 52.0181 127.935 52.1486 127.913 52.306C127.891 52.468 127.819 52.603 127.698 52.7244C127.577 52.8414 127.434 52.9089 127.269 52.9224L126.656 52.9449C126.571 53.3092 126.513 53.5747 126.472 53.7456C126.307 54.4609 126.186 55.0412 126.11 55.4911C126.034 55.9455 126.003 56.2109 126.021 56.2784C126.034 56.3458 126.047 56.3953 126.056 56.4223C126.065 56.4493 126.088 56.4763 126.124 56.5033C126.159 56.5303 126.204 56.5483 126.249 56.5528C126.294 56.5618 126.374 56.5798 126.49 56.6158C126.607 56.6518 126.732 56.6922 126.857 56.7462C126.991 56.7912 127.081 56.8857 127.126 57.0251C127.166 57.1646 127.148 57.3086 127.067 57.457C126.987 57.6055 126.871 57.7179 126.714 57.7899C126.557 57.8619 126.41 57.8709 126.267 57.8169C126.213 57.7989 126.128 57.7719 125.994 57.7449Z" fill="black"/>
<path d="M132.06 57.6954C131.926 57.8034 131.778 57.8529 131.622 57.8484C131.465 57.8439 131.349 57.7854 131.268 57.6729C131.188 57.5605 131.165 57.4255 131.197 57.2726C131.197 57.2636 131.295 56.9082 131.492 56.2019C131.698 55.4281 131.827 54.8388 131.89 54.4339C132.02 53.4847 131.796 52.9853 131.219 52.9404C130.924 52.9179 130.655 52.9673 130.414 53.0933C130.172 53.2193 129.913 53.4397 129.64 53.7501C129.626 53.7726 129.582 53.8266 129.515 53.9121C129.228 55.5541 129.018 56.6787 128.888 57.2906C128.852 57.4525 128.767 57.5875 128.633 57.6954C128.499 57.8079 128.356 57.8619 128.195 57.8619C128.034 57.8619 127.913 57.8079 127.828 57.6954C127.743 57.5875 127.716 57.4525 127.752 57.2906C127.819 56.9397 128.038 55.7565 128.41 53.7411C128.682 52.2296 128.929 51.0239 129.148 50.1377C129.184 49.9847 129.273 49.8543 129.407 49.7418C129.541 49.6293 129.689 49.5798 129.846 49.5888C130.002 49.5978 130.118 49.6563 130.203 49.7733C130.288 49.8858 130.311 50.0252 130.271 50.1827C130.217 50.3896 130.047 51.1814 129.761 52.567C130.356 52.0046 130.959 51.7482 131.563 51.8022C132.758 51.9102 133.245 52.7559 133.026 54.3484C132.959 54.7893 132.883 55.1717 132.807 55.5001C132.726 55.8285 132.633 56.1884 132.516 56.5843C132.404 56.9802 132.333 57.2186 132.31 57.3041C132.284 57.457 132.199 57.592 132.06 57.6954Z" fill="black"/>
<path d="M137.195 57.7044C137.11 57.61 137.048 57.4615 137.021 57.2546L136.963 56.7507C136.918 56.2784 136.855 55.7115 136.779 55.0502C136.659 54.1145 136.583 53.3182 136.551 52.6659C136.538 52.4005 136.587 52.1936 136.708 52.0451C136.829 51.8967 136.999 51.8202 137.218 51.8202C137.339 51.8202 137.441 51.8652 137.531 51.9551C137.616 52.0451 137.665 52.1666 137.674 52.3195C137.705 52.7829 137.741 53.2193 137.786 53.6197L137.875 54.6813L137.965 55.5586L138.18 55.1267C138.376 54.7083 138.555 54.3574 138.712 54.0785L139.038 53.4397L139.423 52.6884C139.629 52.315 139.888 52.1306 140.206 52.1306C140.389 52.1306 140.528 52.1891 140.626 52.306C140.725 52.423 140.788 52.603 140.819 52.8504L141.195 55.9635L141.548 55.1987L142.103 53.9795L142.295 53.5252C142.59 52.8504 142.774 52.45 142.841 52.3285C142.93 52.1531 143.029 52.0271 143.136 51.9461C143.243 51.8652 143.369 51.8247 143.512 51.8247C143.695 51.8247 143.825 51.9012 143.91 52.0496C143.995 52.1981 143.99 52.369 143.897 52.567C143.865 52.6299 143.838 52.6929 143.807 52.7649C143.776 52.8369 143.744 52.9134 143.704 52.9853L143.114 54.299C142.742 55.1222 142.313 55.9635 141.821 56.8317C141.758 56.9532 141.714 57.0386 141.687 57.0836C141.526 57.367 141.387 57.565 141.266 57.6775C141.145 57.7899 141.011 57.8484 140.868 57.8484C140.707 57.8484 140.577 57.7989 140.47 57.7044C140.363 57.61 140.3 57.484 140.278 57.3221C140.17 56.4403 140.023 55.3561 139.835 54.0695C139.123 55.3696 138.622 56.3818 138.327 57.1061C138.121 57.601 137.866 57.8484 137.558 57.8484C137.406 57.8439 137.28 57.7989 137.195 57.7044Z" fill="black"/>
<path d="M143.946 54.6723C144.214 53.4937 144.389 52.7199 144.46 52.3555C144.492 52.1936 144.572 52.0586 144.702 51.9506C144.836 51.8382 144.979 51.7842 145.14 51.7842C145.301 51.7842 145.422 51.8382 145.507 51.9506C145.596 52.0631 145.623 52.1936 145.592 52.3555C145.516 52.7199 145.346 53.4892 145.078 54.6588C144.809 55.8285 144.621 56.7012 144.514 57.2726C144.483 57.4345 144.402 57.5695 144.272 57.6819C144.138 57.7944 143.995 57.8529 143.834 57.8529C143.673 57.8529 143.552 57.7989 143.458 57.6909C143.369 57.583 143.342 57.4525 143.378 57.2906C143.489 56.7282 143.677 55.8555 143.946 54.6723ZM145.999 50.2591C145.963 50.4211 145.883 50.5561 145.749 50.664C145.614 50.7765 145.471 50.8305 145.31 50.8305C145.149 50.8305 145.028 50.7765 144.943 50.664C144.858 50.5561 144.831 50.4211 144.863 50.2591C144.899 50.1017 144.979 49.9667 145.113 49.8543C145.243 49.7463 145.391 49.6878 145.552 49.6878C145.708 49.6878 145.829 49.7463 145.914 49.8588C146.004 49.9667 146.035 50.0972 145.999 50.2591Z" fill="black"/>
<path d="M147.117 57.7449C146.983 57.7134 146.867 57.682 146.773 57.6415C146.679 57.6055 146.572 57.547 146.455 57.475C146.339 57.403 146.241 57.3041 146.16 57.1781C146.08 57.0521 146.021 56.9037 145.986 56.7282C145.95 56.5213 145.981 56.1209 146.088 55.5181C146.165 55.0547 146.285 54.4564 146.451 53.7276C146.482 53.5927 146.536 53.3632 146.607 53.0438L146.518 53.0573C146.352 53.0708 146.218 53.0303 146.12 52.9314C146.021 52.8324 145.981 52.7064 145.995 52.549C146.008 52.3915 146.08 52.2566 146.2 52.1351C146.321 52.0136 146.46 51.9417 146.621 51.9192L146.88 51.8967C146.979 51.4918 147.077 51.0869 147.176 50.6775C147.22 50.5201 147.31 50.3851 147.448 50.2771C147.583 50.1692 147.73 50.1197 147.887 50.1287C148.043 50.1377 148.16 50.1962 148.245 50.3131C148.33 50.4301 148.348 50.5651 148.303 50.7225L148.043 51.8067L148.544 51.7842C148.701 51.7752 148.831 51.8202 148.925 51.9192C149.019 52.0181 149.054 52.1486 149.032 52.306C149.01 52.468 148.938 52.603 148.817 52.7244C148.696 52.8414 148.553 52.9089 148.388 52.9224L147.775 52.9449C147.69 53.3092 147.632 53.5747 147.592 53.7456C147.426 54.4609 147.305 55.0412 147.229 55.4911C147.153 55.9455 147.122 56.2109 147.14 56.2784C147.158 56.3458 147.167 56.3953 147.176 56.4223C147.184 56.4493 147.207 56.4763 147.243 56.5033C147.278 56.5303 147.323 56.5483 147.368 56.5528C147.413 56.5618 147.493 56.5798 147.614 56.6158C147.73 56.6518 147.855 56.6922 147.981 56.7462C148.115 56.7912 148.204 56.8857 148.249 57.0251C148.289 57.1646 148.272 57.3086 148.191 57.457C148.11 57.6055 147.994 57.7179 147.838 57.7899C147.681 57.8619 147.533 57.8709 147.39 57.8169C147.341 57.7989 147.252 57.7719 147.117 57.7449Z" fill="black"/>
<path d="M153.188 57.6954C153.054 57.8034 152.906 57.8529 152.749 57.8484C152.593 57.8439 152.477 57.7854 152.396 57.6729C152.315 57.5605 152.293 57.4255 152.324 57.2726C152.324 57.2636 152.423 56.9082 152.62 56.2019C152.825 55.4281 152.955 54.8388 153.018 54.4339C153.148 53.4847 152.924 52.9853 152.347 52.9404C152.052 52.9179 151.783 52.9673 151.542 53.0933C151.3 53.2193 151.041 53.4397 150.772 53.7501C150.759 53.7726 150.714 53.8266 150.647 53.9121C150.361 55.5541 150.15 56.6787 150.025 57.2906C149.989 57.4525 149.9 57.5875 149.77 57.6954C149.636 57.8079 149.493 57.8619 149.332 57.8619C149.171 57.8619 149.05 57.8079 148.965 57.6954C148.875 57.5875 148.853 57.4525 148.889 57.2906C148.956 56.9397 149.175 55.7565 149.546 53.7411C149.819 52.2296 150.065 51.0239 150.285 50.1377C150.32 49.9847 150.41 49.8543 150.544 49.7418C150.678 49.6293 150.826 49.5798 150.982 49.5888C151.139 49.5978 151.255 49.6563 151.34 49.7733C151.425 49.8858 151.448 50.0252 151.407 50.1827C151.354 50.3896 151.184 51.1814 150.897 52.567C151.492 52.0046 152.096 51.7482 152.7 51.8022C153.895 51.9102 154.382 52.7559 154.163 54.3484C154.096 54.7893 154.02 55.1717 153.939 55.5001C153.859 55.8285 153.765 56.1884 153.649 56.5843C153.537 56.9802 153.465 57.2186 153.443 57.3041C153.411 57.457 153.322 57.592 153.188 57.6954Z" fill="black"/>
<path d="M158.654 57.6415C158.274 57.4795 157.983 57.2501 157.782 56.9442C157.576 56.6248 157.478 56.2424 157.487 55.797C157.496 55.3516 157.581 54.9288 157.746 54.5239C157.912 54.119 158.126 53.7321 158.395 53.3587C158.605 53.0798 158.842 52.8279 159.097 52.6119C159.352 52.396 159.643 52.2071 159.96 52.0541C160.278 51.8967 160.6 51.8157 160.927 51.8022C161.253 51.7887 161.584 51.8607 161.924 52.0136C162.099 52.1036 162.264 52.2476 162.425 52.4455L162.595 52.6524L162.721 52.8144C162.819 52.9134 162.859 53.0438 162.841 53.2013C162.823 53.3587 162.747 53.4982 162.618 53.6197C162.488 53.7366 162.345 53.8041 162.188 53.8176C162.027 53.8311 161.906 53.7861 161.812 53.6826C161.75 53.6286 161.687 53.5567 161.62 53.4667L161.486 53.2733C161.401 53.1653 161.325 53.0978 161.249 53.0663C160.94 52.9134 160.614 52.9179 160.274 53.0708C159.934 53.2238 159.607 53.5027 159.298 53.8986C158.981 54.3259 158.779 54.7488 158.69 55.1762C158.601 55.6036 158.641 55.941 158.811 56.1929C158.918 56.3548 159.088 56.4808 159.321 56.5798C159.553 56.6787 159.817 56.7282 160.104 56.7282C160.694 56.7147 161.115 56.5033 161.361 56.0984V56.0399L161.383 55.95V55.914L161.428 55.707C161.472 55.5496 161.562 55.4146 161.701 55.3112C161.835 55.2077 161.982 55.1627 162.143 55.1672C162.304 55.1717 162.421 55.2392 162.497 55.3561C162.573 55.4731 162.591 55.6126 162.555 55.7745L162.533 55.8645L162.497 56.0264C162.466 56.2154 162.407 56.3818 162.313 56.5303C162.05 56.9712 161.692 57.3041 161.249 57.5245C160.806 57.7449 160.345 57.8574 159.875 57.8664C159.437 57.8754 159.034 57.7989 158.654 57.6415Z" fill="black"/>
<path d="M163.875 57.2141C163.445 56.7912 163.226 56.2244 163.226 55.5091C163.226 54.8838 163.36 54.3035 163.629 53.7591C163.897 53.2148 164.246 52.7739 164.671 52.432C165.096 52.0901 165.548 51.8967 166.017 51.8517C166.125 51.8427 166.201 51.8337 166.25 51.8247C166.299 51.8157 166.344 51.8067 166.38 51.8067C166.469 51.8067 166.545 51.8202 166.608 51.8517H166.948C167.319 51.8517 167.659 51.9551 167.972 52.1576C168.286 52.3645 168.532 52.6434 168.715 53.0033C168.898 53.3587 168.988 53.7546 168.988 54.191C168.988 54.7938 168.84 55.3741 168.545 55.9365C168.25 56.4988 167.843 56.9577 167.319 57.3176C166.796 57.673 166.219 57.8529 165.584 57.8529C164.877 57.8439 164.304 57.637 163.875 57.2141ZM166.769 56.4223C167.087 56.2109 167.346 55.9185 167.547 55.5451C167.749 55.1717 167.847 54.7623 167.847 54.3125C167.847 53.9256 167.744 53.6017 167.534 53.3407C167.324 53.0843 167.087 52.9539 166.814 52.9539C166.648 52.9539 166.505 52.9449 166.384 52.9314C166.331 52.9224 166.281 52.9134 166.237 52.9044C166.192 52.8954 166.147 52.8864 166.102 52.8864C165.959 52.8864 165.789 52.9449 165.593 53.0573C165.284 53.2418 165.002 53.5342 164.752 53.9346C164.501 54.3349 164.376 54.8073 164.376 55.3381C164.376 55.788 164.497 56.1344 164.734 56.3773C164.971 56.6203 165.324 56.7417 165.794 56.7417C166.125 56.7372 166.447 56.6338 166.769 56.4223Z" fill="black"/>
<path d="M170.053 57.2411C169.695 56.8227 169.511 56.2874 169.511 55.6306C169.511 54.9737 169.668 54.3529 169.981 53.7591C170.294 53.1653 170.715 52.6884 171.234 52.3285C171.757 51.9686 172.312 51.7842 172.902 51.7842C173.108 51.7842 173.345 51.8112 173.622 51.8697C173.9 51.9281 174.105 51.9956 174.24 52.0811L174.602 50.2546C174.633 50.0882 174.709 49.9487 174.839 49.8453C174.969 49.7373 175.116 49.6878 175.282 49.6878C175.456 49.6878 175.582 49.7373 175.662 49.8408C175.743 49.9442 175.765 50.0747 175.734 50.2366C175.054 53.7051 174.584 56.0534 174.329 57.2771C174.298 57.439 174.222 57.574 174.096 57.6819C173.971 57.7944 173.824 57.8484 173.649 57.8484C173.497 57.8484 173.385 57.7989 173.309 57.7044C173.233 57.61 173.202 57.493 173.22 57.358C172.96 57.52 172.687 57.6415 172.397 57.7359C172.106 57.8259 171.824 57.8709 171.551 57.8709C170.911 57.8709 170.41 57.6594 170.053 57.2411ZM172.772 56.4718C173.117 56.3009 173.358 56.0939 173.493 55.851C173.698 54.8838 173.85 54.119 173.958 53.5477L173.935 53.5342C173.672 53.2598 173.542 53.1203 173.551 53.1113C173.475 53.0573 173.354 53.0123 173.184 52.9808C173.014 52.9493 172.848 52.9314 172.692 52.9314C172.321 52.9314 171.981 53.0483 171.672 53.2867C171.363 53.5207 171.117 53.8311 170.938 54.209C170.759 54.5914 170.67 54.9872 170.67 55.4056C170.67 55.8105 170.768 56.1299 170.97 56.3683C171.171 56.6068 171.448 56.7282 171.802 56.7282C172.106 56.7282 172.428 56.6428 172.772 56.4718Z" fill="black"/>
<path d="M177.022 57.5335C176.615 57.331 176.297 57.0431 176.069 56.6607C175.841 56.2784 175.729 55.8285 175.729 55.3021C175.729 54.6184 175.886 54.011 176.208 53.4757C176.526 52.9448 176.942 52.531 177.456 52.2386C177.97 51.9461 178.503 51.7977 179.057 51.7977C179.572 51.7977 180.015 51.9191 180.386 52.1576C180.757 52.396 181.039 52.7334 181.232 53.1608C181.424 53.5927 181.522 54.0785 181.522 54.6273C181.522 54.8388 181.433 55.0142 181.263 55.1537C181.093 55.2931 180.896 55.3606 180.686 55.3606L176.874 55.3381C176.874 55.779 177.031 56.1254 177.34 56.3773C177.648 56.6293 178.082 56.7552 178.633 56.7552C179.04 56.7552 179.389 56.6922 179.675 56.5708C179.796 56.5168 179.907 56.4718 180.01 56.4268C180.113 56.3863 180.203 56.3638 180.288 56.3638C180.408 56.3638 180.511 56.4043 180.601 56.4898C180.686 56.5753 180.731 56.6787 180.731 56.8002C180.731 56.9442 180.69 57.0701 180.605 57.1781C180.52 57.2861 180.4 57.3805 180.23 57.4615C179.729 57.7134 179.138 57.8394 178.449 57.8394C177.903 57.8349 177.434 57.7359 177.022 57.5335ZM177.264 54.2405C177.711 54.2405 178.221 54.2405 178.803 54.236C179.38 54.2315 179.903 54.236 180.373 54.2405C180.341 53.7996 180.203 53.4622 179.952 53.2238C179.702 52.9853 179.362 52.8684 178.932 52.8684C178.48 52.8684 178.064 52.9988 177.689 53.2643C177.313 53.5252 177.076 53.8536 176.968 54.2405H177.264Z" fill="black"/>
</g>
<defs>
<clipPath id="clip0">
<rect width="304" height="66" fill="white"/>
</clipPath>
</defs>
</svg>
