<svg id="Layer_1" data-name="Layer 1" xmlns="http://www.w3.org/2000/svg" viewBox="0 0 304 66"><defs><style>.cls-1{fill:#4c8993;}.cls-10,.cls-2{fill:#ed9931;}.cls-3{fill:#00a399;}.cls-4{fill:#fff;}.cls-5{fill:#02a99c;}.cls-6{fill:#4c8891;}.cls-7{fill:#ee9930;}.cls-8{font-size:8.54px;font-family:BalsamiqSans-BoldItalic, Balsamiq Sans;font-style:italic;}.cls-10,.cls-8{font-weight:700;}.cls-9{letter-spacing:-0.02em;}.cls-10{font-size:12.23px;font-family:BalsamiqSans-Bold, Balsamiq Sans;}</style></defs><path class="cls-1" d="M125.75,42.78a5.4,5.4,0,0,1-2.2-1.88,4.8,4.8,0,0,1-.81-2.74A1.28,1.28,0,0,1,124,36.84a1.1,1.1,0,0,1,.71.25,1.05,1.05,0,0,1,.39.74c.23,2.13,1.6,3.2,4.09,3.2a4.53,4.53,0,0,0,2.83-.79,2.47,2.47,0,0,0,1-2,1.48,1.48,0,0,0-.71-1.24,7.42,7.42,0,0,0-1.95-.91l-.76-.27a33.13,33.13,0,0,1-3.5-1.34,6.24,6.24,0,0,1-2.28-1.81,4.19,4.19,0,0,1,0-4.83A5.79,5.79,0,0,1,126.13,26a7,7,0,0,1,3.17-.7,7.56,7.56,0,0,1,3.25.67,5.52,5.52,0,0,1,2.22,1.78,4.06,4.06,0,0,1,.78,2.38,1.35,1.35,0,0,1-.36,1,1.17,1.17,0,0,1-.87.36,1.12,1.12,0,0,1-.84-.36,1.32,1.32,0,0,1-.35-.95,1.78,1.78,0,0,0-.53-1.21,3.87,3.87,0,0,0-1.43-.94,5.42,5.42,0,0,0-2-.36,4.82,4.82,0,0,0-2.71.63,2.17,2.17,0,0,0-.93,1.75,1.37,1.37,0,0,0,.37,1,4.55,4.55,0,0,0,1.23.92,18.38,18.38,0,0,0,1.67.78c.6.24,1.38.53,2.37.85a8.77,8.77,0,0,1,3.14,1.75,3.62,3.62,0,0,1,1.17,2.79,4.42,4.42,0,0,1-.94,2.8,6,6,0,0,1-2.45,1.87,8,8,0,0,1-3.24.66A7.19,7.19,0,0,1,125.75,42.78Z"/><path class="cls-1" d="M140.41,42.6A5.4,5.4,0,0,1,138.34,41a7.61,7.61,0,0,1-1-1.73,5.15,5.15,0,0,1-.39-1.58,9.68,9.68,0,0,1,.07-2,6.45,6.45,0,0,1,.73-2.06,6.85,6.85,0,0,1,1.47-1.82,6.59,6.59,0,0,1,2.23-1.23,6.32,6.32,0,0,1,2.79-.26,6,6,0,0,1,2.44.78,6.17,6.17,0,0,1,1.72,1.54,5,5,0,0,1,.75,1.19c.09.27.18.52.25.75s.14.43.18.59.1.34.14.51a3.48,3.48,0,0,1,.08.61,1.72,1.72,0,0,1-.17.87,1.41,1.41,0,0,1-.59.62,1.92,1.92,0,0,1-.69.12l-4.21.08c-3,0-4.44,0-4.44.09h-.07a3.33,3.33,0,0,0,1.34,2,5.59,5.59,0,0,0,2.8.84,5,5,0,0,0,2.64-.46c.21-.11.47-.25.78-.44a1.23,1.23,0,0,1,1.54,1.67,1.57,1.57,0,0,1-.66.69,5,5,0,0,1-.81.38q-.42.16-1.23.39a9.15,9.15,0,0,1-5.59-.54Zm6.66-7.09a4.6,4.6,0,0,0-.72-1.41,3.7,3.7,0,0,0-2.43-1.32,3.58,3.58,0,0,0-2.69.66,4.32,4.32,0,0,0-1.58,2.22Q141.07,35.59,147.07,35.51Z"/><path class="cls-1" d="M154.41,43a1.15,1.15,0,0,1-.22-.22.87.87,0,0,1-.17-.22l-.2-.35c-.1-.2-.22-.47-.37-.82L153,40.24c-.27-.64-.84-2.12-1.72-4.42l-1.56-4.08a1.23,1.23,0,0,1,0-.94,1.19,1.19,0,0,1,.68-.66,1.16,1.16,0,0,1,.93,0,1.24,1.24,0,0,1,.67.68c.13.37.64,1.72,1.54,4.07s1.46,3.8,1.69,4.38l.09.23a2,2,0,0,0,.17-.36,2.39,2.39,0,0,1,.13-.3,1.28,1.28,0,0,0,.07-.21l0-.1c.12-.26.56-1.39,1.32-3.37a39.28,39.28,0,0,1,2-4.46,1.24,1.24,0,0,1,.74-.6,1.19,1.19,0,0,1,.94.1,1.26,1.26,0,0,1,.49,1.69A34.19,34.19,0,0,0,159.37,36c-.68,1.78-1.14,3-1.37,3.52l-.69,1.51a10.85,10.85,0,0,1-.64,1.14,2.61,2.61,0,0,1-.44.52,1.54,1.54,0,0,1-1,.49A1.15,1.15,0,0,1,154.41,43Z"/><path class="cls-1" d="M165,42.6A5.33,5.33,0,0,1,162.91,41a7.68,7.68,0,0,1-1-1.73,5.8,5.8,0,0,1-.39-1.58,10.42,10.42,0,0,1,.07-2,6.65,6.65,0,0,1,2.21-3.88A6.5,6.5,0,0,1,166,30.59a6.29,6.29,0,0,1,2.78-.26,5.9,5.9,0,0,1,2.44.78,6.07,6.07,0,0,1,1.73,1.54,5,5,0,0,1,.75,1.19q.13.4.24.75c.08.23.14.43.19.59s.09.34.13.51a3.42,3.42,0,0,1,.09.61,1.83,1.83,0,0,1-.17.87,1.47,1.47,0,0,1-.59.62,2,2,0,0,1-.69.12l-4.22.08c-3,0-4.44,0-4.44.09h-.07a3.33,3.33,0,0,0,1.34,2,5.59,5.59,0,0,0,2.8.84,5,5,0,0,0,2.64-.46c.21-.11.47-.25.78-.44a1.23,1.23,0,0,1,1.54,1.67,1.54,1.54,0,0,1-.65.69,5.4,5.4,0,0,1-.81.38c-.29.11-.69.24-1.24.39a9.38,9.38,0,0,1-2.41.2A9.29,9.29,0,0,1,165,42.6Zm6.65-7.09a4.57,4.57,0,0,0-.71-1.41,3.74,3.74,0,0,0-2.44-1.32,3.57,3.57,0,0,0-2.68.66,4.26,4.26,0,0,0-1.58,2.22Q165.65,35.59,171.63,35.51Z"/><path class="cls-1" d="M176.39,42.88A1.17,1.17,0,0,1,176,42c0-1.3,0-2.43,0-3.37q0-4.2-.05-7.31a1.17,1.17,0,0,1,.35-.89,1.2,1.2,0,0,1,.84-.32,1.35,1.35,0,0,1,.9.33,1.21,1.21,0,0,1,.38.93v.77a4.81,4.81,0,0,1,4-2,3.87,3.87,0,0,1,3.28,1.52,6.5,6.5,0,0,1,1.15,4.06c0,1.88,0,3.12-.08,3.72l-.12,1.66-.07,1.06a1.17,1.17,0,0,1-.4.79,1.2,1.2,0,0,1-.81.3,1.23,1.23,0,0,1-.86-.33,1.17,1.17,0,0,1-.37-.91c0-.26.06-1.18.17-2.75q.12-1.61.12-2.52a6.25,6.25,0,0,0-.59-3.11,2,2,0,0,0-1.82-1,3.64,3.64,0,0,0-1.84.55,8.45,8.45,0,0,0-1.78,1.38l.05,3.52,0,3.94a1.17,1.17,0,0,1-.37.91,1.25,1.25,0,0,1-.86.33A1.19,1.19,0,0,1,176.39,42.88Z"/><path class="cls-2" d="M200.85,34.77l-2.56,2.13c0,1.93.06,3.6.13,5a1.27,1.27,0,0,1-.31.9,1.16,1.16,0,0,1-.85.41,1.25,1.25,0,0,1-.9-.31,1.19,1.19,0,0,1-.41-.85c0-1-.08-2-.09-2.93,0-1.19,0-2.4,0-3.64s0-2.21,0-2.9c0-.43,0-1.32-.1-2.66s-.09-2.43-.07-3.23a1.13,1.13,0,0,1,.37-.87,1.25,1.25,0,0,1,.89-.35,1.16,1.16,0,0,1,.86.37,1.28,1.28,0,0,1,.34.9c0,.79,0,1.85.08,3.17s.1,2.2.1,2.62,0,.76,0,1.17a86.25,86.25,0,0,0,8-7.81,1.21,1.21,0,0,1,.86-.39,1.16,1.16,0,0,1,.89.32,1.18,1.18,0,0,1,.39.87,1.2,1.2,0,0,1-.31.89q-2.76,3.08-5.45,5.53l6.33,8.1a1.13,1.13,0,0,1,.26.9,1.19,1.19,0,0,1-.46.83,1.13,1.13,0,0,1-.9.26,1.22,1.22,0,0,1-.82-.46Z"/><path class="cls-2" d="M217,43.07a7.7,7.7,0,0,1-2.27-1,7,7,0,0,1-2-2,10.78,10.78,0,0,1-1.37-2.76,9.46,9.46,0,0,1-.49-2.88,8.69,8.69,0,0,1,.79-3.62,11,11,0,0,1,2.22-3.2A7.85,7.85,0,0,1,216.35,26a8.27,8.27,0,0,1,3.23-.67,7.74,7.74,0,0,1,2.81.54,5.57,5.57,0,0,1,1.56.88,14.15,14.15,0,0,1,1.4,1.4l.74.92a1.21,1.21,0,0,1,.3.77,1.14,1.14,0,0,1-.39.86,1.31,1.31,0,0,1-.92.38,1.18,1.18,0,0,1-.91-.47l-.91-1.12a6.5,6.5,0,0,0-.81-.73,3.88,3.88,0,0,0-.94-.56,4.52,4.52,0,0,0-2.12-.37,6,6,0,0,0-3.77,1.66,6.8,6.8,0,0,0-2.24,5,7.31,7.31,0,0,0,.8,3.16A5.73,5.73,0,0,0,216.07,40a5.47,5.47,0,0,0,1.6.67,7.22,7.22,0,0,0,1.92.25c2,0,3.28-.55,3.89-1.66a6.88,6.88,0,0,0,.42-1.14l.25-.79a1.2,1.2,0,0,1,.45-.62,1.1,1.1,0,0,1,.66-.23,1.31,1.31,0,0,1,.88.35,1.15,1.15,0,0,1,.4.9,1.36,1.36,0,0,1-.08.44l-.17.52a16.89,16.89,0,0,1-.64,1.76,5.12,5.12,0,0,1-2.14,2.06,8.25,8.25,0,0,1-3.15.87l-.69,0A10.8,10.8,0,0,1,217,43.07Z"/><path class="cls-2" d="M229.68,41.73a7.34,7.34,0,0,1-1.92-4.14,7.26,7.26,0,0,1,.47-3.76A6.35,6.35,0,0,1,231,30.46a3,3,0,0,1,1-.32l.34,0,.2-.06a1.27,1.27,0,0,1,.74.08h.47l.49,0,.43.06a3.94,3.94,0,0,1,.51.08l.47.17a4,4,0,0,1,.56.25l.6.35a5.64,5.64,0,0,1,2.21,3.06,6.12,6.12,0,0,1,.32,3.18,9.06,9.06,0,0,1-.78,2.49,6.72,6.72,0,0,1-1.57,2,5.18,5.18,0,0,1-2.13,1.19A5,5,0,0,1,229.68,41.73Zm6.25-2.37a4.83,4.83,0,0,0,1-2,4.55,4.55,0,0,0-.17-2.34,3.26,3.26,0,0,0-1.3-1.84,2.7,2.7,0,0,0-.44-.29,2,2,0,0,0-.41-.15,1.55,1.55,0,0,0-.37-.06l-.58,0-.79-.05a.56.56,0,0,1-.17,0l-.29,0-.17.05a3.87,3.87,0,0,0-1.67,1.9,4.53,4.53,0,0,0-.33,2.69,4.26,4.26,0,0,0,1.21,2.55,3.08,3.08,0,0,0,2.68.7A2.74,2.74,0,0,0,235.93,39.36Z"/><path class="cls-2" d="M250.41,43a1.33,1.33,0,0,1-.45-.85,5.27,5.27,0,0,1-2.21,1,5.55,5.55,0,0,1-2.94-.17,5.07,5.07,0,0,1-2.24-1.56,7.16,7.16,0,0,1-1.62-4.9,6.84,6.84,0,0,1,1.72-4.61A5.45,5.45,0,0,1,248,30.19a5.86,5.86,0,0,1,1.73.52l-.05-4a1.25,1.25,0,0,1,.36-.9,1.16,1.16,0,0,1,.86-.37,1.2,1.2,0,0,1,.87.36,1.15,1.15,0,0,1,.37.86q.18,11.29.18,15.29a1.27,1.27,0,0,1-.36.88,1.19,1.19,0,0,1-.88.36A1.36,1.36,0,0,1,250.41,43Zm-2.12-2.63A4.47,4.47,0,0,0,249,40a2.42,2.42,0,0,0,.32-.29l.25-.28a1.68,1.68,0,0,0,.28-.51c0-2.1,0-3.77-.05-5l0,0c-.69-.6-1-.9-1-.92a3.77,3.77,0,0,0-1.13-.32,3.09,3.09,0,0,0-3.09.94,4.23,4.23,0,0,0-1.11,3,4.87,4.87,0,0,0,1,3.31,2.8,2.8,0,0,0,2.86.9A4.31,4.31,0,0,0,248.29,40.37Z"/><path class="cls-2" d="M257.72,42.6A5.18,5.18,0,0,1,255.66,41a7.57,7.57,0,0,1-1-1.74,5.09,5.09,0,0,1-.39-1.57,9,9,0,0,1,.07-2,6.37,6.37,0,0,1,.73-2.06,6.55,6.55,0,0,1,1.47-1.82,6.44,6.44,0,0,1,2.23-1.24,6.71,6.71,0,0,1,5.23.52,6.05,6.05,0,0,1,1.72,1.55,4.8,4.8,0,0,1,.75,1.19c.09.27.18.51.25.74s.14.43.18.6.1.33.14.51a3.23,3.23,0,0,1,.08.6,1.68,1.68,0,0,1-.17.87,1.41,1.41,0,0,1-.59.62,1.92,1.92,0,0,1-.69.12l-4.21.08c-3,0-4.44,0-4.44.1h-.07a3.33,3.33,0,0,0,1.34,2,5.43,5.43,0,0,0,2.8.84,6,6,0,0,0,1.6-.1,5.77,5.77,0,0,0,1-.36c.22-.1.48-.25.79-.43a1.15,1.15,0,0,1,.94,0,1.19,1.19,0,0,1,.63.69,1.13,1.13,0,0,1,0,.92,1.5,1.5,0,0,1-.65.69,6.81,6.81,0,0,1-.82.39c-.28.1-.69.23-1.23.38a9,9,0,0,1-2.42.2A9.17,9.17,0,0,1,257.72,42.6Zm6.66-7.09a4.71,4.71,0,0,0-.72-1.41,3.64,3.64,0,0,0-2.43-1.31,3.51,3.51,0,0,0-2.69.66A4.2,4.2,0,0,0,257,35.66Q258.4,35.59,264.38,35.51Z"/><path class="cls-1" d="M267.09,50.49H200.57v.66h66.52Z"/><path class="cls-2" d="M267.09,52.47H200.57v.66h66.52Z"/><path class="cls-2" d="M36.91,44.45l17.93-9.28v2.68L39.73,45.46v.08l15.11,7.62v2.68L36.91,46.55Z"/><path class="cls-2" d="M72.06,57.39,82.84,29.23h2.63L74.65,57.39Z"/><path class="cls-2" d="M104,46.59,86.09,55.84V53.16l15.22-7.62v-.08L86.09,37.85V35.17L104,44.41Z"/><path class="cls-1" d="M38.1,43.66,56,34.37v2.68L40.92,44.67v.08L56,52.36V55L38.1,45.75Z"/><path class="cls-1" d="M73.25,56.59,84,28.43h2.63L75.84,56.59Z"/><path class="cls-1" d="M105.21,45.79,87.28,55V52.36l15.22-7.62v-.08L87.28,37.05V34.37l17.93,9.25Z"/><path class="cls-2" d="M89.49,14.14a.46.46,0,0,1-.2-.5,5.78,5.78,0,0,0,0-1.81c-.08-.43-.13-.86-.25-1.27a7.64,7.64,0,0,0-.72-1.72,8.47,8.47,0,0,0-1.56-2A7.14,7.14,0,0,0,84.5,5.44,11.81,11.81,0,0,0,83.12,5c-.53-.11-1.08-.15-1.49-.21A11,11,0,0,0,79.45,5,7.93,7.93,0,0,0,77,6.08,7.42,7.42,0,0,0,75,8a.39.39,0,0,1-.36.18A1.8,1.8,0,0,0,72.88,9a1.87,1.87,0,0,0-.21,1.73,2.08,2.08,0,0,0,.66.89.39.39,0,0,1,.09.24,8.65,8.65,0,0,0,.09,2.59,8.13,8.13,0,0,0,2,3.89A8,8,0,0,0,77.78,20a8.1,8.1,0,0,0,1.6.6,7.57,7.57,0,0,0,3.14.16,9.3,9.3,0,0,0,1.38-.35,6.94,6.94,0,0,0,2.07-1,7.71,7.71,0,0,0,1.74-1.68.41.41,0,0,1,.43-.21A1.83,1.83,0,0,0,90,16.35,1.89,1.89,0,0,0,89.49,14.14ZM89,15.91a.82.82,0,0,1-1.08.4l-.27-.14c-.15-.09-.23,0-.31.09-.25.37-.49.74-.77,1.08a6.76,6.76,0,0,1-1.48,1.29,6.68,6.68,0,0,1-1.47.72,7.49,7.49,0,0,1-1.49.34A6.61,6.61,0,0,1,79,19.33a6.84,6.84,0,0,1-1.87-1,7,7,0,0,1-2.51-3.92,7.34,7.34,0,0,1-.17-1.67,6.45,6.45,0,0,1,.21-1.63.19.19,0,0,0-.08-.14,3.39,3.39,0,0,0-.41-.15.81.81,0,0,1-.47-1.09.79.79,0,0,1,1.09-.37l.45.21c.17-.25.31-.49.47-.72A7,7,0,0,1,80.46,6a6.28,6.28,0,0,1,2.12,0,6.59,6.59,0,0,1,1.83.62A6.88,6.88,0,0,1,87,8.76a6.68,6.68,0,0,1,1,1.92,6.45,6.45,0,0,1,.32,1.63,7.09,7.09,0,0,1-.18,2.15c0,.2,0,.25.2.3a1.7,1.7,0,0,1,.32.1A.8.8,0,0,1,89,15.91Z"/><path class="cls-2" d="M88.58,14.86a2,2,0,0,0-.32-.1c-.21,0-.25-.11-.2-.3a7.42,7.42,0,0,0,.17-2.15,6.44,6.44,0,0,0-.31-1.63,7.23,7.23,0,0,0-1-1.92A6.83,6.83,0,0,0,84.4,6.6,6.53,6.53,0,0,0,82.58,6a6.29,6.29,0,0,0-2.12,0,6.77,6.77,0,0,0-1.81.5,7,7,0,0,0-2.94,2.37l-.46.72-.45-.21a.78.78,0,0,0-1.09.37.81.81,0,0,0,.46,1.09,3.52,3.52,0,0,1,.42.15.17.17,0,0,1,.07.14,6.86,6.86,0,0,0-.2,1.63,7.22,7.22,0,0,0,.16,1.67,7.71,7.71,0,0,0,.77,1.93,6.94,6.94,0,0,0,1.75,2,6.7,6.7,0,0,0,1.87,1,6.58,6.58,0,0,0,3.11.36,7.43,7.43,0,0,0,1.5-.34,6.46,6.46,0,0,0,1.47-.72,6.71,6.71,0,0,0,1.47-1.29,11.74,11.74,0,0,0,.77-1.08c.09-.13.17-.18.31-.09l.28.14a.8.8,0,1,0,.66-1.45Zm-9-3.55a.78.78,0,0,1,.79.81.76.76,0,0,1-.84.77.79.79,0,0,1,0-1.58Zm3.21,5.56a4.67,4.67,0,0,1-1.41.29,4.49,4.49,0,0,1-2-.48,4,4,0,0,1-1.83-1.84c-.12-.23-.11-.23.1-.35s.34-.18.54.17a3.5,3.5,0,0,0,3.24,1.82,2.88,2.88,0,0,0,1-.2c.14-.06.25-.06.3.13a.77.77,0,0,0,.1.25A.14.14,0,0,1,82.8,16.87Zm.73-2.4a.77.77,0,0,1-.8-.74.8.8,0,0,1,.8-.86.79.79,0,0,1,.77.75A.77.77,0,0,1,83.53,14.47Z"/><path class="cls-2" d="M82.8,16.87a4.67,4.67,0,0,1-1.41.29,4.49,4.49,0,0,1-2-.48,4,4,0,0,1-1.83-1.84c-.12-.23-.11-.23.1-.35s.34-.18.54.17a3.5,3.5,0,0,0,3.24,1.82,2.88,2.88,0,0,0,1-.2c.14-.06.25-.06.3.13a.77.77,0,0,0,.1.25A.14.14,0,0,1,82.8,16.87Z"/><path class="cls-2" d="M84.3,13.62a.78.78,0,0,1-.77.86.81.81,0,1,1,.77-.86Z"/><path class="cls-2" d="M80.38,12.12a.8.8,0,0,1-1.59,0,.8.8,0,1,1,1.59,0Z"/><path class="cls-1" d="M88.5,13.65a.48.48,0,0,1-.19-.51,5.5,5.5,0,0,0,0-1.81A10.56,10.56,0,0,0,88,10.06a6.82,6.82,0,0,0-.72-1.72,8.42,8.42,0,0,0-1.56-2,6.93,6.93,0,0,0-2.25-1.44,11.16,11.16,0,0,0-1.38-.46c-.53-.12-1.07-.16-1.48-.22a11.63,11.63,0,0,0-2.18.26A8,8,0,0,0,76,5.58a7.42,7.42,0,0,0-2,1.89.37.37,0,0,1-.36.18,1.83,1.83,0,0,0-1.75.82,1.87,1.87,0,0,0-.2,1.73,2.18,2.18,0,0,0,.65.9.28.28,0,0,1,.09.23,8.64,8.64,0,0,0,.1,2.59,8.08,8.08,0,0,0,4.26,5.58,8.43,8.43,0,0,0,1.61.6,7.56,7.56,0,0,0,3.14.16,9.49,9.49,0,0,0,1.37-.35,6.77,6.77,0,0,0,2.08-1,7.88,7.88,0,0,0,1.73-1.68.42.42,0,0,1,.43-.21A1.85,1.85,0,0,0,89,15.86,1.89,1.89,0,0,0,88.5,13.65ZM88,15.41a.82.82,0,0,1-1.09.4c-.09-.05-.18-.08-.27-.14s-.22,0-.31.1c-.25.36-.49.73-.77,1.07a6.71,6.71,0,0,1-1.47,1.29,6.91,6.91,0,0,1-1.47.72,6.52,6.52,0,0,1-1.5.34A6.58,6.58,0,0,1,78,18.83a6.84,6.84,0,0,1-1.87-1,7,7,0,0,1-2.52-3.92,6.71,6.71,0,0,1-.16-1.67,6.78,6.78,0,0,1,.2-1.62.17.17,0,0,0-.08-.15c-.13-.06-.27-.1-.41-.15a.81.81,0,0,1-.46-1.09.79.79,0,0,1,1.09-.36c.13.07.28.13.45.2.16-.25.3-.49.46-.71A6.9,6.9,0,0,1,77.67,6a7.09,7.09,0,0,1,1.8-.5,6.09,6.09,0,0,1,2.13,0,6.3,6.3,0,0,1,1.82.61,6.84,6.84,0,0,1,3.51,4.08,5.68,5.68,0,0,1,.32,1.63A7.09,7.09,0,0,1,87.07,14c0,.2,0,.25.21.3l.32.1A.82.82,0,0,1,88,15.41Z"/><path class="cls-3" d="M87.59,14.36l-.32-.1c-.2,0-.25-.1-.2-.3a7.09,7.09,0,0,0,.18-2.15,6.45,6.45,0,0,0-.32-1.63,6.68,6.68,0,0,0-1-1.92A7,7,0,0,0,83.42,6.1a6.26,6.26,0,0,0-1.83-.61,6,6,0,0,0-2.12,0,7,7,0,0,0-1.8.5,6.9,6.9,0,0,0-2.94,2.38c-.16.22-.3.46-.47.71l-.45-.2a.79.79,0,0,0-1.09.36.81.81,0,0,0,.47,1.09c.13.05.28.09.41.15a.19.19,0,0,1,.08.15,6.79,6.79,0,0,0-.21,1.62,7.23,7.23,0,0,0,.17,1.67,7,7,0,0,0,2.51,3.92,6.59,6.59,0,0,0,1.87,1,6.5,6.5,0,0,0,3.12.36,6.86,6.86,0,0,0,1.49-.34,6.27,6.27,0,0,0,1.47-.72,6.76,6.76,0,0,0,1.48-1.29c.28-.34.52-.71.77-1.07.09-.13.16-.19.31-.1s.18.09.27.14a.8.8,0,1,0,.66-1.45Zm-9-3.54a.78.78,0,0,1,.8.8.77.77,0,0,1-.84.77.79.79,0,0,1,0-1.57Zm3.22,5.56a4,4,0,0,1-3.41-.19,4.12,4.12,0,0,1-1.83-1.84c-.11-.23-.11-.23.11-.35s.33-.18.53.16A3.5,3.5,0,0,0,80.46,16a3.17,3.17,0,0,0,1.06-.21c.13,0,.25,0,.29.13a.85.85,0,0,0,.11.26A.14.14,0,0,1,81.82,16.38Zm.72-2.4a.8.8,0,1,1,.78-.86A.78.78,0,0,1,82.54,14Z"/><path class="cls-4" d="M81.82,16.38a4,4,0,0,1-3.41-.19,4.12,4.12,0,0,1-1.83-1.84c-.11-.23-.11-.23.11-.35s.33-.18.53.16A3.5,3.5,0,0,0,80.46,16a3.17,3.17,0,0,0,1.06-.21c.13,0,.25,0,.29.13a.85.85,0,0,0,.11.26A.14.14,0,0,1,81.82,16.38Z"/><path class="cls-4" d="M83.31,13.12a.77.77,0,0,1-.77.86.8.8,0,1,1,0-1.6A.77.77,0,0,1,83.31,13.12Z"/><path class="cls-4" d="M79.39,11.62a.79.79,0,0,1-1.58,0,.79.79,0,1,1,1.58,0Z"/><path class="cls-5" d="M78.74,23l.38.1-3.29,9.77q-2.58,7.62-5.18,15.23c-1,3.06-2.11,6.1-3.07,9.18-.56,1.8-1.49,3.11-3.38,3.54a9.69,9.69,0,0,1-2.22.07,3.92,3.92,0,0,1-3.77-5.3q1.42-4.22,2.84-8.42c.76-2.28,1.51-4.57,2.27-6.85,1.06-3.15,2.16-6.27,3.15-9.44a4.68,4.68,0,0,0-1.93-5.14,5.34,5.34,0,0,0-3.12-.84H54.21a3.63,3.63,0,0,1-1.91-.51c-2.14-1.29-2.26-3.88-1.52-6,.6-1.76,2.13-2.38,3.9-2.39,2,0,4,0,5.92,0l9.94,0a10.46,10.46,0,0,0,5.15,5.78c.15.08.31.14.46.21l.52.29A11.61,11.61,0,0,0,78.74,23Z"/><path class="cls-5" d="M80.89,17.13l-.26,0-.21,0a5,5,0,0,1-1-.36l-.25-.14-.2-.13h0l.38.11.25.06.31.05.18,0,.36,0,.29,0A1.61,1.61,0,0,1,80.89,17.13Z"/><path class="cls-6" d="M79,15.65a1.34,1.34,0,0,1-.21-.2l-.17-.19L78.43,15h-.56a3.38,3.38,0,0,0,1,.69l.18.07.19.06A1.84,1.84,0,0,1,79,15.65Zm.22.17h0l.09,0Zm.81,7.42c-.31,0-.63-.09-.93-.16l-3.29,9.77q-2.58,7.62-5.17,15.23c-1,3.06-2.12,6.1-3.08,9.18-.56,1.8-1.49,3.11-3.38,3.54a9.69,9.69,0,0,1-2.22.07,3.92,3.92,0,0,1-3.77-5.3q1.42-4.22,2.84-8.42c.76-2.28,1.51-4.57,2.27-6.85,1.06-3.15,2.16-6.27,3.15-9.44a4.68,4.68,0,0,0-1.93-5.14,5.34,5.34,0,0,0-3.12-.84H54.21a3.63,3.63,0,0,1-1.91-.51c-2.14-1.29-2.26-3.88-1.52-6,.6-1.76,2.13-2.38,3.9-2.39,2,0,4,0,5.92,0l9.94,0a9.15,9.15,0,0,1-.29-.93H54.44a4.83,4.83,0,0,0-4.64,3.14,7.14,7.14,0,0,0-.3,2.6,4.83,4.83,0,0,0,4.36,5.09c2.71,0,5.42-.07,8.13,0A3.87,3.87,0,0,1,65.49,31c-1.27,3.74-2.52,7.49-3.78,11.24q-2,5.88-4,11.75a1.73,1.73,0,0,1-.41.9c-.07.37-.13.74-.2,1.11a4.79,4.79,0,0,0,3,5.41,9.86,9.86,0,0,0,3.46.26,4.57,4.57,0,0,0,4.51-3.19q4.38-12.92,8.74-25.83c.63-1.85,1.18-3.72,1.92-5.52l0,0C78.84,26.87,79.39,25.23,80.05,23.24Z"/><path class="cls-7" d="M53.87,25.84c2.71,0,5.42-.06,8.13,0a3.88,3.88,0,0,1,3.5,5.22c-1.27,3.74-2.52,7.49-3.78,11.23q-2,5.88-4,11.75a1.73,1.73,0,0,1-.41.9,10.64,10.64,0,0,1,.82-3.79c1.82-5.43,3.7-10.84,5.52-16.27a28,28,0,0,0,1.37-5.2A2.47,2.47,0,0,0,64,27.18a4.43,4.43,0,0,0-2.42-.7c-1.54,0-3.09.05-4.64,0A5.51,5.51,0,0,1,53.87,25.84Z"/><text class="cls-8" transform="translate(123.48 53.75)"><tspan class="cls-9">L</tspan><tspan x="4.78" y="0">earn while playing</tspan></text><text class="cls-10" transform="translate(209.91 43.24)">.</text></svg>